solid OpenSCAD_Model
  facet normal -0 0 1
    outer loop
      vertex 9.82502 2 5
      vertex 11.9924 0.174311 5
      vertex 11.208 9.14006 5
    endloop
  endfacet
  facet normal 0 0 1
    outer loop
      vertex 11.9924 0.174311 5
      vertex 9.82502 2 5
      vertex 10 0 5
    endloop
  endfacet
  facet normal 0 -0 1
    outer loop
      vertex 9.82502 2 5
      vertex 11.208 9.14006 5
      vertex 9.2156 8.96575 5
    endloop
  endfacet
  facet normal -0 0 1
    outer loop
      vertex 2.18262 2 5
      vertex 10 0 5
      vertex 9.82502 2 5
    endloop
  endfacet
  facet normal 0 0 1
    outer loop
      vertex 10 0 5
      vertex 2.18262 2 5
      vertex 2.00764 0 5
    endloop
  endfacet
  facet normal 0 0 1
    outer loop
      vertex 0.784401 8.96575 5
      vertex 2.18262 2 5
      vertex 2.77679 8.79144 5
    endloop
  endfacet
  facet normal 0 0 1
    outer loop
      vertex 0 0 5
      vertex 2.18262 2 5
      vertex 0.784401 8.96575 5
    endloop
  endfacet
  facet normal 0 0 1
    outer loop
      vertex 2.18262 2 5
      vertex 0 0 5
      vertex 2.00764 0 5
    endloop
  endfacet
  facet normal 0 0 1
    outer loop
      vertex 2.00764 0 5
      vertex 0 0 5
      vertex 1.99239 -0.174311 5
    endloop
  endfacet
  facet normal 0 0 -1
    outer loop
      vertex 10 0 0
      vertex 2.18262 2 0
      vertex 9.82502 2 0
    endloop
  endfacet
  facet normal 0 -0 -1
    outer loop
      vertex 2.18262 2 0
      vertex 10 0 0
      vertex 2.00764 0 0
    endloop
  endfacet
  facet normal 0 0 -1
    outer loop
      vertex 9.82502 2 0
      vertex 11.9924 0.174311 0
      vertex 10 0 0
    endloop
  endfacet
  facet normal 0 0 -1
    outer loop
      vertex 11.9924 0.174311 0
      vertex 9.82502 2 0
      vertex 11.208 9.14006 0
    endloop
  endfacet
  facet normal 0 0 -1
    outer loop
      vertex 11.208 9.14006 0
      vertex 9.82502 2 0
      vertex 9.2156 8.96575 0
    endloop
  endfacet
  facet normal 0 0 -1
    outer loop
      vertex 2.18262 2 0
      vertex 0.784401 8.96575 0
      vertex 2.77679 8.79144 0
    endloop
  endfacet
  facet normal 0 0 -1
    outer loop
      vertex 0 0 0
      vertex 2.18262 2 0
      vertex 2.00764 0 0
    endloop
  endfacet
  facet normal 0 0 -1
    outer loop
      vertex 0 0 0
      vertex 2.00764 0 0
      vertex 1.99239 -0.174311 0
    endloop
  endfacet
  facet normal -0 0 -1
    outer loop
      vertex 2.18262 2 0
      vertex 0 0 0
      vertex 0.784401 8.96575 0
    endloop
  endfacet
  facet normal 0 1 -0
    outer loop
      vertex 9.82502 2 0
      vertex 2.18262 2 5
      vertex 9.82502 2 5
    endloop
  endfacet
  facet normal 0 1 0
    outer loop
      vertex 2.18262 2 5
      vertex 9.82502 2 0
      vertex 2.18262 2 0
    endloop
  endfacet
  facet normal 0 -1 0
    outer loop
      vertex 2.00764 0 0
      vertex 10 0 5
      vertex 2.00764 0 5
    endloop
  endfacet
  facet normal 0 -1 -0
    outer loop
      vertex 10 0 5
      vertex 2.00764 0 0
      vertex 10 0 0
    endloop
  endfacet
  facet normal -0.996195 -0.0871552 0
    outer loop
      vertex 9.82502 2 0
      vertex 9.2156 8.96575 5
      vertex 9.2156 8.96575 0
    endloop
  endfacet
  facet normal -0.996195 -0.0871552 0
    outer loop
      vertex 9.2156 8.96575 5
      vertex 9.82502 2 0
      vertex 9.82502 2 5
    endloop
  endfacet
  facet normal -0.0871545 0.996195 0
    outer loop
      vertex 11.208 9.14006 0
      vertex 9.2156 8.96575 5
      vertex 11.208 9.14006 5
    endloop
  endfacet
  facet normal -0.0871545 0.996195 0
    outer loop
      vertex 9.2156 8.96575 5
      vertex 11.208 9.14006 0
      vertex 9.2156 8.96575 0
    endloop
  endfacet
  facet normal 0.087155 -0.996195 0
    outer loop
      vertex 10 0 0
      vertex 11.9924 0.174311 5
      vertex 10 0 5
    endloop
  endfacet
  facet normal 0.087155 -0.996195 0
    outer loop
      vertex 11.9924 0.174311 5
      vertex 10 0 0
      vertex 11.9924 0.174311 0
    endloop
  endfacet
  facet normal 0.996195 0.0871556 0
    outer loop
      vertex 11.9924 0.174311 5
      vertex 11.208 9.14006 0
      vertex 11.208 9.14006 5
    endloop
  endfacet
  facet normal 0.996195 0.0871556 0
    outer loop
      vertex 11.208 9.14006 0
      vertex 11.9924 0.174311 5
      vertex 11.9924 0.174311 0
    endloop
  endfacet
  facet normal 0.996195 -0.0871552 0
    outer loop
      vertex 2.18262 2 5
      vertex 2.77679 8.79144 0
      vertex 2.77679 8.79144 5
    endloop
  endfacet
  facet normal 0.996195 -0.0871552 0
    outer loop
      vertex 2.77679 8.79144 0
      vertex 2.18262 2 5
      vertex 2.18262 2 0
    endloop
  endfacet
  facet normal 0.996195 -0.0871544 0
    outer loop
      vertex 1.99239 -0.174311 5
      vertex 2.00764 0 0
      vertex 2.00764 0 5
    endloop
  endfacet
  facet normal 0.996195 -0.0871544 0
    outer loop
      vertex 2.00764 0 0
      vertex 1.99239 -0.174311 5
      vertex 1.99239 -0.174311 0
    endloop
  endfacet
  facet normal -0.996195 0.0871557 0
    outer loop
      vertex 0 0 0
      vertex 0.784401 8.96575 5
      vertex 0.784401 8.96575 0
    endloop
  endfacet
  facet normal -0.996195 0.0871557 0
    outer loop
      vertex 0.784401 8.96575 5
      vertex 0 0 0
      vertex 0 0 5
    endloop
  endfacet
  facet normal 0.087155 0.996195 -0
    outer loop
      vertex 2.77679 8.79144 0
      vertex 0.784401 8.96575 5
      vertex 2.77679 8.79144 5
    endloop
  endfacet
  facet normal 0.087155 0.996195 0
    outer loop
      vertex 0.784401 8.96575 5
      vertex 2.77679 8.79144 0
      vertex 0.784401 8.96575 0
    endloop
  endfacet
  facet normal -0.0871555 -0.996195 0
    outer loop
      vertex 0 0 0
      vertex 1.99239 -0.174311 5
      vertex 0 0 5
    endloop
  endfacet
  facet normal -0.0871555 -0.996195 -0
    outer loop
      vertex 1.99239 -0.174311 5
      vertex 0 0 0
      vertex 1.99239 -0.174311 0
    endloop
  endfacet
endsolid OpenSCAD_Model
