solid OpenSCAD_Model
  facet normal 1 -0 0
    outer loop
      vertex 160 0 4
      vertex 160 180 0
      vertex 160 180 4
    endloop
  endfacet
  facet normal 1 0 0
    outer loop
      vertex 160 180 0
      vertex 160 0 4
      vertex 160 0 0
    endloop
  endfacet
  facet normal 0 0 1
    outer loop
      vertex 160 180 4
      vertex 158 178 4
      vertex 160 0 4
    endloop
  endfacet
  facet normal 0 0 1
    outer loop
      vertex 160 180 4
      vertex 2 178 4
      vertex 158 178 4
    endloop
  endfacet
  facet normal 0 0 1
    outer loop
      vertex 2 178 4
      vertex 0 180 4
      vertex 2 2 4
    endloop
  endfacet
  facet normal -0 0 1
    outer loop
      vertex 0 180 4
      vertex 2 178 4
      vertex 160 180 4
    endloop
  endfacet
  facet normal -0 0 1
    outer loop
      vertex 158 2 4
      vertex 160 0 4
      vertex 158 178 4
    endloop
  endfacet
  facet normal -0 0 1
    outer loop
      vertex 2 2 4
      vertex 160 0 4
      vertex 158 2 4
    endloop
  endfacet
  facet normal 0 0 1
    outer loop
      vertex 2 2 4
      vertex 0 0 4
      vertex 160 0 4
    endloop
  endfacet
  facet normal 0 0 1
    outer loop
      vertex 0 0 4
      vertex 2 2 4
      vertex 0 180 4
    endloop
  endfacet
  facet normal 0 0 -1
    outer loop
      vertex 160 0 0
      vertex 158 2 0
      vertex 160 180 0
    endloop
  endfacet
  facet normal 0 0 -1
    outer loop
      vertex 160 0 0
      vertex 2 2 0
      vertex 158 2 0
    endloop
  endfacet
  facet normal -0 0 -1
    outer loop
      vertex 2 2 0
      vertex 0 0 0
      vertex 2 178 0
    endloop
  endfacet
  facet normal 0 0 -1
    outer loop
      vertex 0 0 0
      vertex 2 2 0
      vertex 160 0 0
    endloop
  endfacet
  facet normal 0 0 -1
    outer loop
      vertex 158 178 0
      vertex 160 180 0
      vertex 158 2 0
    endloop
  endfacet
  facet normal 0 0 -1
    outer loop
      vertex 2 178 0
      vertex 160 180 0
      vertex 158 178 0
    endloop
  endfacet
  facet normal 0 0 -1
    outer loop
      vertex 2 178 0
      vertex 0 180 0
      vertex 160 180 0
    endloop
  endfacet
  facet normal 0 0 -1
    outer loop
      vertex 0 180 0
      vertex 2 178 0
      vertex 0 0 0
    endloop
  endfacet
  facet normal -1 0 0
    outer loop
      vertex 0 0 0
      vertex 0 180 4
      vertex 0 180 0
    endloop
  endfacet
  facet normal -1 -0 0
    outer loop
      vertex 0 180 4
      vertex 0 0 0
      vertex 0 0 4
    endloop
  endfacet
  facet normal 0 1 -0
    outer loop
      vertex 160 180 0
      vertex 0 180 4
      vertex 160 180 4
    endloop
  endfacet
  facet normal 0 1 0
    outer loop
      vertex 0 180 4
      vertex 160 180 0
      vertex 0 180 0
    endloop
  endfacet
  facet normal 0 -1 0
    outer loop
      vertex 8.06279 0 2.99803
      vertex 0 0 4
      vertex 8 0 3
    endloop
  endfacet
  facet normal 0 -1 0
    outer loop
      vertex 0 0 4
      vertex 7.93721 0 2.99803
      vertex 8 0 3
    endloop
  endfacet
  facet normal 0 -1 0
    outer loop
      vertex 0 0 4
      vertex 7.87467 0 2.99211
      vertex 7.93721 0 2.99803
    endloop
  endfacet
  facet normal 0 -1 0
    outer loop
      vertex 0 0 4
      vertex 7.81262 0 2.98229
      vertex 7.87467 0 2.99211
    endloop
  endfacet
  facet normal 0 -1 0
    outer loop
      vertex 0 0 4
      vertex 7.75131 0 2.96858
      vertex 7.81262 0 2.98229
    endloop
  endfacet
  facet normal 0 -1 0
    outer loop
      vertex 0 0 4
      vertex 7.69098 0 2.95106
      vertex 7.75131 0 2.96858
    endloop
  endfacet
  facet normal 0 -1 0
    outer loop
      vertex 0 0 4
      vertex 7.63188 0 2.92978
      vertex 7.69098 0 2.95106
    endloop
  endfacet
  facet normal 0 -1 0
    outer loop
      vertex 0 0 4
      vertex 7.57422 0 2.90483
      vertex 7.63188 0 2.92978
    endloop
  endfacet
  facet normal 0 -1 0
    outer loop
      vertex 0 0 4
      vertex 7.51825 0 2.87631
      vertex 7.57422 0 2.90483
    endloop
  endfacet
  facet normal 0 -1 0
    outer loop
      vertex 0 0 4
      vertex 7.46417 0 2.84433
      vertex 7.51825 0 2.87631
    endloop
  endfacet
  facet normal 0 -1 0
    outer loop
      vertex 0 0 4
      vertex 7.41221 0 2.80902
      vertex 7.46417 0 2.84433
    endloop
  endfacet
  facet normal 0 -1 0
    outer loop
      vertex 0 0 4
      vertex 7.36258 0 2.77051
      vertex 7.41221 0 2.80902
    endloop
  endfacet
  facet normal 0 -1 0
    outer loop
      vertex 0 0 4
      vertex 7.31545 0 2.72897
      vertex 7.36258 0 2.77051
    endloop
  endfacet
  facet normal 0 -1 0
    outer loop
      vertex 0 0 4
      vertex 7.27103 0 2.68455
      vertex 7.31545 0 2.72897
    endloop
  endfacet
  facet normal 0 -1 0
    outer loop
      vertex 0 0 4
      vertex 7.22949 0 2.63742
      vertex 7.27103 0 2.68455
    endloop
  endfacet
  facet normal 0 -1 0
    outer loop
      vertex 0 0 4
      vertex 7.19098 0 2.58778
      vertex 7.22949 0 2.63742
    endloop
  endfacet
  facet normal 0 -1 0
    outer loop
      vertex 0 0 4
      vertex 7.15567 0 2.53583
      vertex 7.19098 0 2.58778
    endloop
  endfacet
  facet normal 0 -1 0
    outer loop
      vertex 0 0 4
      vertex 7.12369 0 2.48175
      vertex 7.15567 0 2.53583
    endloop
  endfacet
  facet normal 0 -1 0
    outer loop
      vertex 0 0 4
      vertex 7.09517 0 2.42578
      vertex 7.12369 0 2.48175
    endloop
  endfacet
  facet normal 0 -1 0
    outer loop
      vertex 0 0 4
      vertex 7.07022 0 2.36812
      vertex 7.09517 0 2.42578
    endloop
  endfacet
  facet normal 0 -1 0
    outer loop
      vertex 0 0 4
      vertex 7.04894 0 2.30902
      vertex 7.07022 0 2.36812
    endloop
  endfacet
  facet normal 0 -1 0
    outer loop
      vertex 0 0 4
      vertex 7.03142 0 2.24869
      vertex 7.04894 0 2.30902
    endloop
  endfacet
  facet normal 0 -1 0
    outer loop
      vertex 0 0 4
      vertex 7.01771 0 2.18738
      vertex 7.03142 0 2.24869
    endloop
  endfacet
  facet normal 0 -1 0
    outer loop
      vertex 0 0 4
      vertex 7.00788 0 2.12533
      vertex 7.01771 0 2.18738
    endloop
  endfacet
  facet normal 0 -1 0
    outer loop
      vertex 0 0 4
      vertex 7.00197 0 2.06279
      vertex 7.00788 0 2.12533
    endloop
  endfacet
  facet normal 0 -1 0
    outer loop
      vertex 0 0 4
      vertex 7 0 2
      vertex 7.00197 0 2.06279
    endloop
  endfacet
  facet normal 0 -1 0
    outer loop
      vertex 0 0 0
      vertex 7 0 2
      vertex 0 0 4
    endloop
  endfacet
  facet normal 0 -1 -0
    outer loop
      vertex 7 0 2
      vertex 0 0 0
      vertex 7.00197 0 1.93721
    endloop
  endfacet
  facet normal 0 -1 -0
    outer loop
      vertex 7.00197 0 1.93721
      vertex 0 0 0
      vertex 7.00788 0 1.87467
    endloop
  endfacet
  facet normal 0 -1 -0
    outer loop
      vertex 7.00788 0 1.87467
      vertex 0 0 0
      vertex 7.01771 0 1.81262
    endloop
  endfacet
  facet normal 0 -1 -0
    outer loop
      vertex 7.01771 0 1.81262
      vertex 0 0 0
      vertex 7.03142 0 1.75131
    endloop
  endfacet
  facet normal 0 -1 -0
    outer loop
      vertex 7.03142 0 1.75131
      vertex 0 0 0
      vertex 7.04894 0 1.69098
    endloop
  endfacet
  facet normal 0 -1 -0
    outer loop
      vertex 7.04894 0 1.69098
      vertex 0 0 0
      vertex 7.07022 0 1.63188
    endloop
  endfacet
  facet normal 0 -1 -0
    outer loop
      vertex 7.07022 0 1.63188
      vertex 0 0 0
      vertex 7.09517 0 1.57422
    endloop
  endfacet
  facet normal 0 -1 -0
    outer loop
      vertex 7.09517 0 1.57422
      vertex 0 0 0
      vertex 7.12369 0 1.51825
    endloop
  endfacet
  facet normal 0 -1 -0
    outer loop
      vertex 7.12369 0 1.51825
      vertex 0 0 0
      vertex 7.15567 0 1.46417
    endloop
  endfacet
  facet normal 0 -1 -0
    outer loop
      vertex 7.15567 0 1.46417
      vertex 0 0 0
      vertex 7.19098 0 1.41221
    endloop
  endfacet
  facet normal 0 -1 -0
    outer loop
      vertex 7.19098 0 1.41221
      vertex 0 0 0
      vertex 7.22949 0 1.36258
    endloop
  endfacet
  facet normal 0 -1 -0
    outer loop
      vertex 7.22949 0 1.36258
      vertex 0 0 0
      vertex 7.27103 0 1.31545
    endloop
  endfacet
  facet normal 0 -1 -0
    outer loop
      vertex 7.27103 0 1.31545
      vertex 0 0 0
      vertex 7.31545 0 1.27103
    endloop
  endfacet
  facet normal 0 -1 -0
    outer loop
      vertex 7.31545 0 1.27103
      vertex 0 0 0
      vertex 7.36258 0 1.22949
    endloop
  endfacet
  facet normal 0 -1 -0
    outer loop
      vertex 7.36258 0 1.22949
      vertex 0 0 0
      vertex 7.41221 0 1.19098
    endloop
  endfacet
  facet normal 0 -1 -0
    outer loop
      vertex 7.41221 0 1.19098
      vertex 0 0 0
      vertex 7.46417 0 1.15567
    endloop
  endfacet
  facet normal 0 -1 -0
    outer loop
      vertex 7.46417 0 1.15567
      vertex 0 0 0
      vertex 7.51825 0 1.12369
    endloop
  endfacet
  facet normal 0 -1 -0
    outer loop
      vertex 7.51825 0 1.12369
      vertex 0 0 0
      vertex 7.57422 0 1.09517
    endloop
  endfacet
  facet normal 0 -1 -0
    outer loop
      vertex 7.93721 0 1.00197
      vertex 0 0 0
      vertex 8 0 1
    endloop
  endfacet
  facet normal 0 -1 -0
    outer loop
      vertex 7.87467 0 1.00788
      vertex 0 0 0
      vertex 7.93721 0 1.00197
    endloop
  endfacet
  facet normal 0 -1 -0
    outer loop
      vertex 7.81262 0 1.01771
      vertex 0 0 0
      vertex 7.87467 0 1.00788
    endloop
  endfacet
  facet normal 0 -1 -0
    outer loop
      vertex 7.75131 0 1.03142
      vertex 0 0 0
      vertex 7.81262 0 1.01771
    endloop
  endfacet
  facet normal 0 -1 -0
    outer loop
      vertex 7.69098 0 1.04894
      vertex 0 0 0
      vertex 7.75131 0 1.03142
    endloop
  endfacet
  facet normal 0 -1 -0
    outer loop
      vertex 7.63188 0 1.07022
      vertex 0 0 0
      vertex 7.69098 0 1.04894
    endloop
  endfacet
  facet normal 0 -1 -0
    outer loop
      vertex 7.57422 0 1.09517
      vertex 0 0 0
      vertex 7.63188 0 1.07022
    endloop
  endfacet
  facet normal 0 -1 0
    outer loop
      vertex 8.12533 0 2.99211
      vertex 0 0 4
      vertex 8.06279 0 2.99803
    endloop
  endfacet
  facet normal 0 -1 0
    outer loop
      vertex 0 0 4
      vertex 8.12533 0 2.99211
      vertex 160 0 4
    endloop
  endfacet
  facet normal 0 -1 0
    outer loop
      vertex 8.18738 0 2.98229
      vertex 160 0 4
      vertex 8.12533 0 2.99211
    endloop
  endfacet
  facet normal 0 -1 0
    outer loop
      vertex 8.24869 0 2.96858
      vertex 160 0 4
      vertex 8.18738 0 2.98229
    endloop
  endfacet
  facet normal 0 -1 0
    outer loop
      vertex 8.30902 0 2.95106
      vertex 160 0 4
      vertex 8.24869 0 2.96858
    endloop
  endfacet
  facet normal 0 -1 0
    outer loop
      vertex 8.36812 0 2.92978
      vertex 160 0 4
      vertex 8.30902 0 2.95106
    endloop
  endfacet
  facet normal 0 -1 0
    outer loop
      vertex 8.42578 0 2.90483
      vertex 160 0 4
      vertex 8.36812 0 2.92978
    endloop
  endfacet
  facet normal 0 -1 0
    outer loop
      vertex 8.48175 0 2.87631
      vertex 160 0 4
      vertex 8.42578 0 2.90483
    endloop
  endfacet
  facet normal 0 -1 0
    outer loop
      vertex 8.53583 0 2.84433
      vertex 160 0 4
      vertex 8.48175 0 2.87631
    endloop
  endfacet
  facet normal 0 -1 0
    outer loop
      vertex 8.58778 0 2.80902
      vertex 160 0 4
      vertex 8.53583 0 2.84433
    endloop
  endfacet
  facet normal 0 -1 0
    outer loop
      vertex 8.63742 0 2.77051
      vertex 160 0 4
      vertex 8.58778 0 2.80902
    endloop
  endfacet
  facet normal 0 -1 0
    outer loop
      vertex 8.68455 0 2.72897
      vertex 160 0 4
      vertex 8.63742 0 2.77051
    endloop
  endfacet
  facet normal 0 -1 0
    outer loop
      vertex 8.72897 0 2.68455
      vertex 160 0 4
      vertex 8.68455 0 2.72897
    endloop
  endfacet
  facet normal 0 -1 0
    outer loop
      vertex 8.77051 0 2.63742
      vertex 160 0 4
      vertex 8.72897 0 2.68455
    endloop
  endfacet
  facet normal 0 -1 0
    outer loop
      vertex 8.80902 0 2.58778
      vertex 160 0 4
      vertex 8.77051 0 2.63742
    endloop
  endfacet
  facet normal 0 -1 0
    outer loop
      vertex 8.84433 0 2.53583
      vertex 160 0 4
      vertex 8.80902 0 2.58778
    endloop
  endfacet
  facet normal 0 -1 0
    outer loop
      vertex 8.87631 0 2.48175
      vertex 160 0 4
      vertex 8.84433 0 2.53583
    endloop
  endfacet
  facet normal 0 -1 0
    outer loop
      vertex 8.90483 0 2.42578
      vertex 160 0 4
      vertex 8.87631 0 2.48175
    endloop
  endfacet
  facet normal 0 -1 0
    outer loop
      vertex 8.92978 0 2.36812
      vertex 160 0 4
      vertex 8.90483 0 2.42578
    endloop
  endfacet
  facet normal 0 -1 0
    outer loop
      vertex 8.95106 0 2.30902
      vertex 160 0 4
      vertex 8.92978 0 2.36812
    endloop
  endfacet
  facet normal 0 -1 0
    outer loop
      vertex 8.96858 0 2.24869
      vertex 160 0 4
      vertex 8.95106 0 2.30902
    endloop
  endfacet
  facet normal 0 -1 0
    outer loop
      vertex 8.98229 0 2.18738
      vertex 160 0 4
      vertex 8.96858 0 2.24869
    endloop
  endfacet
  facet normal 0 -1 0
    outer loop
      vertex 8.99211 0 2.12533
      vertex 160 0 4
      vertex 8.98229 0 2.18738
    endloop
  endfacet
  facet normal 0 -1 0
    outer loop
      vertex 8.99803 0 2.06279
      vertex 160 0 4
      vertex 8.99211 0 2.12533
    endloop
  endfacet
  facet normal 0 -1 0
    outer loop
      vertex 9 0 2
      vertex 160 0 4
      vertex 8.99803 0 2.06279
    endloop
  endfacet
  facet normal 0 -1 0
    outer loop
      vertex 160 0 0
      vertex 9 0 2
      vertex 8.99803 0 1.93721
    endloop
  endfacet
  facet normal 0 -1 0
    outer loop
      vertex 160 0 0
      vertex 8.99803 0 1.93721
      vertex 8.99211 0 1.87467
    endloop
  endfacet
  facet normal 0 -1 0
    outer loop
      vertex 160 0 0
      vertex 8.99211 0 1.87467
      vertex 8.98229 0 1.81262
    endloop
  endfacet
  facet normal 0 -1 0
    outer loop
      vertex 160 0 0
      vertex 8.98229 0 1.81262
      vertex 8.96858 0 1.75131
    endloop
  endfacet
  facet normal 0 -1 0
    outer loop
      vertex 160 0 0
      vertex 8.96858 0 1.75131
      vertex 8.95106 0 1.69098
    endloop
  endfacet
  facet normal 0 -1 0
    outer loop
      vertex 160 0 0
      vertex 8.95106 0 1.69098
      vertex 8.92978 0 1.63188
    endloop
  endfacet
  facet normal 0 -1 0
    outer loop
      vertex 160 0 0
      vertex 8.92978 0 1.63188
      vertex 8.90483 0 1.57422
    endloop
  endfacet
  facet normal 0 -1 0
    outer loop
      vertex 160 0 0
      vertex 8.90483 0 1.57422
      vertex 8.87631 0 1.51825
    endloop
  endfacet
  facet normal 0 -1 0
    outer loop
      vertex 160 0 0
      vertex 8.87631 0 1.51825
      vertex 8.84433 0 1.46417
    endloop
  endfacet
  facet normal 0 -1 0
    outer loop
      vertex 160 0 0
      vertex 8.84433 0 1.46417
      vertex 8.80902 0 1.41221
    endloop
  endfacet
  facet normal 0 -1 0
    outer loop
      vertex 160 0 0
      vertex 8.80902 0 1.41221
      vertex 8.77051 0 1.36258
    endloop
  endfacet
  facet normal 0 -1 0
    outer loop
      vertex 160 0 0
      vertex 8.77051 0 1.36258
      vertex 8.72897 0 1.31545
    endloop
  endfacet
  facet normal 0 -1 0
    outer loop
      vertex 160 0 0
      vertex 8.72897 0 1.31545
      vertex 8.68455 0 1.27103
    endloop
  endfacet
  facet normal 0 -1 0
    outer loop
      vertex 160 0 0
      vertex 8.68455 0 1.27103
      vertex 8.63742 0 1.22949
    endloop
  endfacet
  facet normal 0 -1 0
    outer loop
      vertex 160 0 0
      vertex 8.63742 0 1.22949
      vertex 8.58778 0 1.19098
    endloop
  endfacet
  facet normal 0 -1 0
    outer loop
      vertex 160 0 0
      vertex 8.58778 0 1.19098
      vertex 8.53583 0 1.15567
    endloop
  endfacet
  facet normal 0 -1 0
    outer loop
      vertex 160 0 0
      vertex 8.53583 0 1.15567
      vertex 8.48175 0 1.12369
    endloop
  endfacet
  facet normal 0 -1 0
    outer loop
      vertex 160 0 0
      vertex 8.48175 0 1.12369
      vertex 8.42578 0 1.09517
    endloop
  endfacet
  facet normal 0 -1 0
    outer loop
      vertex 160 0 0
      vertex 8.42578 0 1.09517
      vertex 8.36812 0 1.07022
    endloop
  endfacet
  facet normal 0 -1 0
    outer loop
      vertex 160 0 0
      vertex 8.36812 0 1.07022
      vertex 8.30902 0 1.04894
    endloop
  endfacet
  facet normal 0 -1 0
    outer loop
      vertex 160 0 0
      vertex 8.30902 0 1.04894
      vertex 8.24869 0 1.03142
    endloop
  endfacet
  facet normal 0 -1 0
    outer loop
      vertex 160 0 0
      vertex 8.24869 0 1.03142
      vertex 8.18738 0 1.01771
    endloop
  endfacet
  facet normal 0 -1 0
    outer loop
      vertex 160 0 0
      vertex 8.18738 0 1.01771
      vertex 8.12533 0 1.00788
    endloop
  endfacet
  facet normal 0 -1 0
    outer loop
      vertex 0 0 0
      vertex 8.12533 0 1.00788
      vertex 8.06279 0 1.00197
    endloop
  endfacet
  facet normal 0 -1 0
    outer loop
      vertex 0 0 0
      vertex 8.06279 0 1.00197
      vertex 8 0 1
    endloop
  endfacet
  facet normal 0 -1 -0
    outer loop
      vertex 8.12533 0 1.00788
      vertex 0 0 0
      vertex 160 0 0
    endloop
  endfacet
  facet normal 0 -1 0
    outer loop
      vertex 9 0 2
      vertex 160 0 0
      vertex 160 0 4
    endloop
  endfacet
  facet normal -1 0 0
    outer loop
      vertex 158 2 0
      vertex 158 178 4
      vertex 158 178 0
    endloop
  endfacet
  facet normal -1 -0 0
    outer loop
      vertex 158 178 4
      vertex 158 2 0
      vertex 158 2 4
    endloop
  endfacet
  facet normal 1 -0 0
    outer loop
      vertex 2 2 4
      vertex 2 178 0
      vertex 2 178 4
    endloop
  endfacet
  facet normal 1 0 0
    outer loop
      vertex 2 178 0
      vertex 2 2 4
      vertex 2 2 0
    endloop
  endfacet
  facet normal 0 -1 0
    outer loop
      vertex 2 178 0
      vertex 158 178 4
      vertex 2 178 4
    endloop
  endfacet
  facet normal 0 -1 -0
    outer loop
      vertex 158 178 4
      vertex 2 178 0
      vertex 158 178 0
    endloop
  endfacet
  facet normal 0 1 -0
    outer loop
      vertex 8.12533 2 2.99211
      vertex 2 2 4
      vertex 158 2 4
    endloop
  endfacet
  facet normal 0 1 0
    outer loop
      vertex 2 2 4
      vertex 8.06279 2 2.99803
      vertex 8 2 3
    endloop
  endfacet
  facet normal 0 1 0
    outer loop
      vertex 2 2 4
      vertex 8.12533 2 2.99211
      vertex 8.06279 2 2.99803
    endloop
  endfacet
  facet normal 0 1 0
    outer loop
      vertex 158 2 4
      vertex 8.18738 2 2.98229
      vertex 8.12533 2 2.99211
    endloop
  endfacet
  facet normal 0 1 0
    outer loop
      vertex 158 2 4
      vertex 8.24869 2 2.96858
      vertex 8.18738 2 2.98229
    endloop
  endfacet
  facet normal 0 1 0
    outer loop
      vertex 158 2 4
      vertex 8.30902 2 2.95106
      vertex 8.24869 2 2.96858
    endloop
  endfacet
  facet normal 0 1 0
    outer loop
      vertex 158 2 4
      vertex 8.36812 2 2.92978
      vertex 8.30902 2 2.95106
    endloop
  endfacet
  facet normal 0 1 0
    outer loop
      vertex 158 2 4
      vertex 8.42578 2 2.90483
      vertex 8.36812 2 2.92978
    endloop
  endfacet
  facet normal 0 1 0
    outer loop
      vertex 158 2 4
      vertex 8.48175 2 2.87631
      vertex 8.42578 2 2.90483
    endloop
  endfacet
  facet normal 0 1 0
    outer loop
      vertex 158 2 4
      vertex 8.53583 2 2.84433
      vertex 8.48175 2 2.87631
    endloop
  endfacet
  facet normal 0 1 0
    outer loop
      vertex 158 2 4
      vertex 8.58778 2 2.80902
      vertex 8.53583 2 2.84433
    endloop
  endfacet
  facet normal 0 1 0
    outer loop
      vertex 158 2 4
      vertex 8.63742 2 2.77051
      vertex 8.58778 2 2.80902
    endloop
  endfacet
  facet normal 0 1 0
    outer loop
      vertex 158 2 4
      vertex 8.68455 2 2.72897
      vertex 8.63742 2 2.77051
    endloop
  endfacet
  facet normal 0 1 0
    outer loop
      vertex 158 2 4
      vertex 8.72897 2 2.68455
      vertex 8.68455 2 2.72897
    endloop
  endfacet
  facet normal 0 1 0
    outer loop
      vertex 158 2 4
      vertex 8.77051 2 2.63742
      vertex 8.72897 2 2.68455
    endloop
  endfacet
  facet normal 0 1 0
    outer loop
      vertex 158 2 4
      vertex 8.80902 2 2.58778
      vertex 8.77051 2 2.63742
    endloop
  endfacet
  facet normal 0 1 0
    outer loop
      vertex 158 2 4
      vertex 8.84433 2 2.53583
      vertex 8.80902 2 2.58778
    endloop
  endfacet
  facet normal 0 1 0
    outer loop
      vertex 158 2 4
      vertex 8.87631 2 2.48175
      vertex 8.84433 2 2.53583
    endloop
  endfacet
  facet normal 0 1 0
    outer loop
      vertex 158 2 4
      vertex 8.90483 2 2.42578
      vertex 8.87631 2 2.48175
    endloop
  endfacet
  facet normal 0 1 0
    outer loop
      vertex 158 2 4
      vertex 8.92978 2 2.36812
      vertex 8.90483 2 2.42578
    endloop
  endfacet
  facet normal 0 1 0
    outer loop
      vertex 158 2 4
      vertex 8.95106 2 2.30902
      vertex 8.92978 2 2.36812
    endloop
  endfacet
  facet normal 0 1 0
    outer loop
      vertex 158 2 4
      vertex 8.96858 2 2.24869
      vertex 8.95106 2 2.30902
    endloop
  endfacet
  facet normal 0 1 0
    outer loop
      vertex 158 2 4
      vertex 8.98229 2 2.18738
      vertex 8.96858 2 2.24869
    endloop
  endfacet
  facet normal 0 1 0
    outer loop
      vertex 158 2 4
      vertex 8.99211 2 2.12533
      vertex 8.98229 2 2.18738
    endloop
  endfacet
  facet normal 0 1 0
    outer loop
      vertex 158 2 4
      vertex 8.99803 2 2.06279
      vertex 8.99211 2 2.12533
    endloop
  endfacet
  facet normal 0 1 0
    outer loop
      vertex 158 2 4
      vertex 9 2 2
      vertex 8.99803 2 2.06279
    endloop
  endfacet
  facet normal 0 1 -0
    outer loop
      vertex 158 2 0
      vertex 9 2 2
      vertex 158 2 4
    endloop
  endfacet
  facet normal 0 1 0
    outer loop
      vertex 9 2 2
      vertex 158 2 0
      vertex 8.99803 2 1.93721
    endloop
  endfacet
  facet normal 0 1 0
    outer loop
      vertex 8.99803 2 1.93721
      vertex 158 2 0
      vertex 8.99211 2 1.87467
    endloop
  endfacet
  facet normal 0 1 0
    outer loop
      vertex 8.99211 2 1.87467
      vertex 158 2 0
      vertex 8.98229 2 1.81262
    endloop
  endfacet
  facet normal 0 1 0
    outer loop
      vertex 8.98229 2 1.81262
      vertex 158 2 0
      vertex 8.96858 2 1.75131
    endloop
  endfacet
  facet normal 0 1 0
    outer loop
      vertex 8.96858 2 1.75131
      vertex 158 2 0
      vertex 8.95106 2 1.69098
    endloop
  endfacet
  facet normal 0 1 0
    outer loop
      vertex 8.95106 2 1.69098
      vertex 158 2 0
      vertex 8.92978 2 1.63188
    endloop
  endfacet
  facet normal 0 1 0
    outer loop
      vertex 8.92978 2 1.63188
      vertex 158 2 0
      vertex 8.90483 2 1.57422
    endloop
  endfacet
  facet normal 0 1 0
    outer loop
      vertex 8.90483 2 1.57422
      vertex 158 2 0
      vertex 8.87631 2 1.51825
    endloop
  endfacet
  facet normal 0 1 0
    outer loop
      vertex 8.87631 2 1.51825
      vertex 158 2 0
      vertex 8.84433 2 1.46417
    endloop
  endfacet
  facet normal 0 1 0
    outer loop
      vertex 8.84433 2 1.46417
      vertex 158 2 0
      vertex 8.80902 2 1.41221
    endloop
  endfacet
  facet normal 0 1 0
    outer loop
      vertex 8.80902 2 1.41221
      vertex 158 2 0
      vertex 8.77051 2 1.36258
    endloop
  endfacet
  facet normal 0 1 0
    outer loop
      vertex 8.77051 2 1.36258
      vertex 158 2 0
      vertex 8.72897 2 1.31545
    endloop
  endfacet
  facet normal 0 1 0
    outer loop
      vertex 8.72897 2 1.31545
      vertex 158 2 0
      vertex 8.68455 2 1.27103
    endloop
  endfacet
  facet normal 0 1 0
    outer loop
      vertex 8.68455 2 1.27103
      vertex 158 2 0
      vertex 8.63742 2 1.22949
    endloop
  endfacet
  facet normal 0 1 0
    outer loop
      vertex 8.63742 2 1.22949
      vertex 158 2 0
      vertex 8.58778 2 1.19098
    endloop
  endfacet
  facet normal 0 1 0
    outer loop
      vertex 8.58778 2 1.19098
      vertex 158 2 0
      vertex 8.53583 2 1.15567
    endloop
  endfacet
  facet normal 0 1 0
    outer loop
      vertex 8.53583 2 1.15567
      vertex 158 2 0
      vertex 8.48175 2 1.12369
    endloop
  endfacet
  facet normal 0 1 0
    outer loop
      vertex 8.48175 2 1.12369
      vertex 158 2 0
      vertex 8.42578 2 1.09517
    endloop
  endfacet
  facet normal 0 1 0
    outer loop
      vertex 8.42578 2 1.09517
      vertex 158 2 0
      vertex 8.36812 2 1.07022
    endloop
  endfacet
  facet normal 0 1 0
    outer loop
      vertex 8.36812 2 1.07022
      vertex 158 2 0
      vertex 8.30902 2 1.04894
    endloop
  endfacet
  facet normal 0 1 0
    outer loop
      vertex 8.30902 2 1.04894
      vertex 158 2 0
      vertex 8.24869 2 1.03142
    endloop
  endfacet
  facet normal 0 1 0
    outer loop
      vertex 8.24869 2 1.03142
      vertex 158 2 0
      vertex 8.18738 2 1.01771
    endloop
  endfacet
  facet normal 0 1 0
    outer loop
      vertex 8.18738 2 1.01771
      vertex 158 2 0
      vertex 8.12533 2 1.00788
    endloop
  endfacet
  facet normal 0 1 0
    outer loop
      vertex 2 2 0
      vertex 8.12533 2 1.00788
      vertex 158 2 0
    endloop
  endfacet
  facet normal 0 1 0
    outer loop
      vertex 8.12533 2 1.00788
      vertex 2 2 0
      vertex 8.06279 2 1.00197
    endloop
  endfacet
  facet normal 0 1 -0
    outer loop
      vertex 7.93721 2 2.99803
      vertex 2 2 4
      vertex 8 2 3
    endloop
  endfacet
  facet normal 0 1 -0
    outer loop
      vertex 7.87467 2 2.99211
      vertex 2 2 4
      vertex 7.93721 2 2.99803
    endloop
  endfacet
  facet normal 0 1 -0
    outer loop
      vertex 7.81262 2 2.98229
      vertex 2 2 4
      vertex 7.87467 2 2.99211
    endloop
  endfacet
  facet normal 0 1 -0
    outer loop
      vertex 7.75131 2 2.96858
      vertex 2 2 4
      vertex 7.81262 2 2.98229
    endloop
  endfacet
  facet normal 0 1 -0
    outer loop
      vertex 7.69098 2 2.95106
      vertex 2 2 4
      vertex 7.75131 2 2.96858
    endloop
  endfacet
  facet normal 0 1 -0
    outer loop
      vertex 7.63188 2 2.92978
      vertex 2 2 4
      vertex 7.69098 2 2.95106
    endloop
  endfacet
  facet normal 0 1 -0
    outer loop
      vertex 7.57422 2 2.90483
      vertex 2 2 4
      vertex 7.63188 2 2.92978
    endloop
  endfacet
  facet normal 0 1 -0
    outer loop
      vertex 7.51825 2 2.87631
      vertex 2 2 4
      vertex 7.57422 2 2.90483
    endloop
  endfacet
  facet normal 0 1 -0
    outer loop
      vertex 7.46417 2 2.84433
      vertex 2 2 4
      vertex 7.51825 2 2.87631
    endloop
  endfacet
  facet normal 0 1 -0
    outer loop
      vertex 7.41221 2 2.80902
      vertex 2 2 4
      vertex 7.46417 2 2.84433
    endloop
  endfacet
  facet normal 0 1 -0
    outer loop
      vertex 7.36258 2 2.77051
      vertex 2 2 4
      vertex 7.41221 2 2.80902
    endloop
  endfacet
  facet normal 0 1 -0
    outer loop
      vertex 7.31545 2 2.72897
      vertex 2 2 4
      vertex 7.36258 2 2.77051
    endloop
  endfacet
  facet normal 0 1 -0
    outer loop
      vertex 7.27103 2 2.68455
      vertex 2 2 4
      vertex 7.31545 2 2.72897
    endloop
  endfacet
  facet normal 0 1 -0
    outer loop
      vertex 7.22949 2 2.63742
      vertex 2 2 4
      vertex 7.27103 2 2.68455
    endloop
  endfacet
  facet normal 0 1 -0
    outer loop
      vertex 7.19098 2 2.58778
      vertex 2 2 4
      vertex 7.22949 2 2.63742
    endloop
  endfacet
  facet normal 0 1 -0
    outer loop
      vertex 7.15567 2 2.53583
      vertex 2 2 4
      vertex 7.19098 2 2.58778
    endloop
  endfacet
  facet normal 0 1 -0
    outer loop
      vertex 7.12369 2 2.48175
      vertex 2 2 4
      vertex 7.15567 2 2.53583
    endloop
  endfacet
  facet normal 0 1 -0
    outer loop
      vertex 7.09517 2 2.42578
      vertex 2 2 4
      vertex 7.12369 2 2.48175
    endloop
  endfacet
  facet normal 0 1 -0
    outer loop
      vertex 7.07022 2 2.36812
      vertex 2 2 4
      vertex 7.09517 2 2.42578
    endloop
  endfacet
  facet normal 0 1 -0
    outer loop
      vertex 7.04894 2 2.30902
      vertex 2 2 4
      vertex 7.07022 2 2.36812
    endloop
  endfacet
  facet normal 0 1 -0
    outer loop
      vertex 7.03142 2 2.24869
      vertex 2 2 4
      vertex 7.04894 2 2.30902
    endloop
  endfacet
  facet normal 0 1 -0
    outer loop
      vertex 7.01771 2 2.18738
      vertex 2 2 4
      vertex 7.03142 2 2.24869
    endloop
  endfacet
  facet normal 0 1 -0
    outer loop
      vertex 7.00788 2 2.12533
      vertex 2 2 4
      vertex 7.01771 2 2.18738
    endloop
  endfacet
  facet normal 0 1 -0
    outer loop
      vertex 7.00197 2 2.06279
      vertex 2 2 4
      vertex 7.00788 2 2.12533
    endloop
  endfacet
  facet normal 0 1 -0
    outer loop
      vertex 7 2 2
      vertex 2 2 4
      vertex 7.00197 2 2.06279
    endloop
  endfacet
  facet normal 0 1 0
    outer loop
      vertex 2 2 0
      vertex 7 2 2
      vertex 7.00197 2 1.93721
    endloop
  endfacet
  facet normal 0 1 0
    outer loop
      vertex 2 2 0
      vertex 7.00197 2 1.93721
      vertex 7.00788 2 1.87467
    endloop
  endfacet
  facet normal 0 1 0
    outer loop
      vertex 2 2 0
      vertex 7.00788 2 1.87467
      vertex 7.01771 2 1.81262
    endloop
  endfacet
  facet normal 0 1 0
    outer loop
      vertex 2 2 0
      vertex 7.01771 2 1.81262
      vertex 7.03142 2 1.75131
    endloop
  endfacet
  facet normal 0 1 0
    outer loop
      vertex 2 2 0
      vertex 7.03142 2 1.75131
      vertex 7.04894 2 1.69098
    endloop
  endfacet
  facet normal 0 1 0
    outer loop
      vertex 2 2 0
      vertex 7.04894 2 1.69098
      vertex 7.07022 2 1.63188
    endloop
  endfacet
  facet normal 0 1 0
    outer loop
      vertex 2 2 0
      vertex 7.07022 2 1.63188
      vertex 7.09517 2 1.57422
    endloop
  endfacet
  facet normal 0 1 0
    outer loop
      vertex 2 2 0
      vertex 7.09517 2 1.57422
      vertex 7.12369 2 1.51825
    endloop
  endfacet
  facet normal 0 1 0
    outer loop
      vertex 2 2 0
      vertex 7.12369 2 1.51825
      vertex 7.15567 2 1.46417
    endloop
  endfacet
  facet normal 0 1 0
    outer loop
      vertex 2 2 0
      vertex 7.15567 2 1.46417
      vertex 7.19098 2 1.41221
    endloop
  endfacet
  facet normal 0 1 0
    outer loop
      vertex 2 2 0
      vertex 7.19098 2 1.41221
      vertex 7.22949 2 1.36258
    endloop
  endfacet
  facet normal 0 1 0
    outer loop
      vertex 2 2 0
      vertex 7.22949 2 1.36258
      vertex 7.27103 2 1.31545
    endloop
  endfacet
  facet normal 0 1 0
    outer loop
      vertex 2 2 0
      vertex 7.27103 2 1.31545
      vertex 7.31545 2 1.27103
    endloop
  endfacet
  facet normal 0 1 0
    outer loop
      vertex 2 2 0
      vertex 7.31545 2 1.27103
      vertex 7.36258 2 1.22949
    endloop
  endfacet
  facet normal 0 1 0
    outer loop
      vertex 2 2 0
      vertex 7.36258 2 1.22949
      vertex 7.41221 2 1.19098
    endloop
  endfacet
  facet normal 0 1 0
    outer loop
      vertex 2 2 0
      vertex 7.41221 2 1.19098
      vertex 7.46417 2 1.15567
    endloop
  endfacet
  facet normal 0 1 0
    outer loop
      vertex 2 2 0
      vertex 7.46417 2 1.15567
      vertex 7.51825 2 1.12369
    endloop
  endfacet
  facet normal 0 1 0
    outer loop
      vertex 7 2 2
      vertex 2 2 0
      vertex 2 2 4
    endloop
  endfacet
  facet normal 0 1 0
    outer loop
      vertex 7.57422 2 1.09517
      vertex 2 2 0
      vertex 7.51825 2 1.12369
    endloop
  endfacet
  facet normal 0 1 0
    outer loop
      vertex 7.63188 2 1.07022
      vertex 2 2 0
      vertex 7.57422 2 1.09517
    endloop
  endfacet
  facet normal 0 1 0
    outer loop
      vertex 7.69098 2 1.04894
      vertex 2 2 0
      vertex 7.63188 2 1.07022
    endloop
  endfacet
  facet normal 0 1 0
    outer loop
      vertex 7.75131 2 1.03142
      vertex 2 2 0
      vertex 7.69098 2 1.04894
    endloop
  endfacet
  facet normal 0 1 0
    outer loop
      vertex 7.81262 2 1.01771
      vertex 2 2 0
      vertex 7.75131 2 1.03142
    endloop
  endfacet
  facet normal 0 1 0
    outer loop
      vertex 7.87467 2 1.00788
      vertex 2 2 0
      vertex 7.81262 2 1.01771
    endloop
  endfacet
  facet normal 0 1 0
    outer loop
      vertex 7.93721 2 1.00197
      vertex 2 2 0
      vertex 7.87467 2 1.00788
    endloop
  endfacet
  facet normal 0 1 0
    outer loop
      vertex 8 2 1
      vertex 2 2 0
      vertex 7.93721 2 1.00197
    endloop
  endfacet
  facet normal 0 1 0
    outer loop
      vertex 8.06279 2 1.00197
      vertex 2 2 0
      vertex 8 2 1
    endloop
  endfacet
  facet normal 0.278881 0 -0.960326
    outer loop
      vertex 7.69098 0 2.95106
      vertex 7.75131 2 2.96858
      vertex 7.75131 0 2.96858
    endloop
  endfacet
  facet normal 0.278881 0 -0.960326
    outer loop
      vertex 7.75131 2 2.96858
      vertex 7.69098 0 2.95106
      vertex 7.69098 2 2.95106
    endloop
  endfacet
  facet normal -0.99555 0 -0.0942382
    outer loop
      vertex 8.99803 0 2.06279
      vertex 8.99211 2 2.12533
      vertex 8.99803 2 2.06279
    endloop
  endfacet
  facet normal -0.99555 -0 -0.0942382
    outer loop
      vertex 8.99211 2 2.12533
      vertex 8.99803 0 2.06279
      vertex 8.99211 0 2.12533
    endloop
  endfacet
  facet normal -0.999508 0 -0.031359
    outer loop
      vertex 9 0 2
      vertex 8.99803 2 2.06279
      vertex 9 2 2
    endloop
  endfacet
  facet normal -0.999508 -0 -0.031359
    outer loop
      vertex 8.99803 2 2.06279
      vertex 9 0 2
      vertex 8.99803 0 2.06279
    endloop
  endfacet
  facet normal -0.750195 0 -0.661216
    outer loop
      vertex 8.77051 0 2.63742
      vertex 8.72897 2 2.68455
      vertex 8.77051 2 2.63742
    endloop
  endfacet
  facet normal -0.750195 -0 -0.661216
    outer loop
      vertex 8.72897 2 2.68455
      vertex 8.77051 0 2.63742
      vertex 8.72897 0 2.68455
    endloop
  endfacet
  facet normal -0.509008 0 0.860762
    outer loop
      vertex 8.48175 2 1.12369
      vertex 8.53583 0 1.15567
      vertex 8.53583 2 1.15567
    endloop
  endfacet
  facet normal -0.509008 0 0.860762
    outer loop
      vertex 8.53583 0 1.15567
      vertex 8.48175 2 1.12369
      vertex 8.48175 0 1.12369
    endloop
  endfacet
  facet normal -0.707107 0 -0.707107
    outer loop
      vertex 8.72897 0 2.68455
      vertex 8.68455 2 2.72897
      vertex 8.72897 2 2.68455
    endloop
  endfacet
  facet normal -0.707107 -0 -0.707107
    outer loop
      vertex 8.68455 2 2.72897
      vertex 8.72897 0 2.68455
      vertex 8.68455 0 2.72897
    endloop
  endfacet
  facet normal 0.750195 -0 0.661216
    outer loop
      vertex 7.22949 0 1.36258
      vertex 7.27103 2 1.31545
      vertex 7.22949 2 1.36258
    endloop
  endfacet
  facet normal 0.750195 0 0.661216
    outer loop
      vertex 7.27103 2 1.31545
      vertex 7.22949 0 1.36258
      vertex 7.27103 0 1.31545
    endloop
  endfacet
  facet normal -0.987707 0 -0.156314
    outer loop
      vertex 8.99211 0 2.12533
      vertex 8.98229 2 2.18738
      vertex 8.99211 2 2.12533
    endloop
  endfacet
  facet normal -0.987707 -0 -0.156314
    outer loop
      vertex 8.98229 2 2.18738
      vertex 8.99211 0 2.12533
      vertex 8.98229 0 2.18738
    endloop
  endfacet
  facet normal 0.940867 -0 0.338776
    outer loop
      vertex 7.04894 0 1.69098
      vertex 7.07022 2 1.63188
      vertex 7.04894 2 1.69098
    endloop
  endfacet
  facet normal 0.940867 0 0.338776
    outer loop
      vertex 7.07022 2 1.63188
      vertex 7.04894 0 1.69098
      vertex 7.07022 0 1.63188
    endloop
  endfacet
  facet normal 0.707107 0 -0.707107
    outer loop
      vertex 7.31545 0 2.72897
      vertex 7.27103 2 2.68455
      vertex 7.31545 2 2.72897
    endloop
  endfacet
  facet normal 0.707107 0 -0.707107
    outer loop
      vertex 7.27103 2 2.68455
      vertex 7.31545 0 2.72897
      vertex 7.27103 0 2.68455
    endloop
  endfacet
  facet normal -0.975898 0 -0.218228
    outer loop
      vertex 8.98229 0 2.18738
      vertex 8.96858 2 2.24869
      vertex 8.98229 2 2.18738
    endloop
  endfacet
  facet normal -0.975898 -0 -0.218228
    outer loop
      vertex 8.96858 2 2.24869
      vertex 8.98229 0 2.18738
      vertex 8.96858 0 2.24869
    endloop
  endfacet
  facet normal -0.509008 0 -0.860762
    outer loop
      vertex 8.48175 0 2.87631
      vertex 8.53583 2 2.84433
      vertex 8.53583 0 2.84433
    endloop
  endfacet
  facet normal -0.509008 0 -0.860762
    outer loop
      vertex 8.53583 2 2.84433
      vertex 8.48175 0 2.87631
      vertex 8.48175 2 2.87631
    endloop
  endfacet
  facet normal -0.218228 0 0.975898
    outer loop
      vertex 8.18738 2 1.01771
      vertex 8.24869 0 1.03142
      vertex 8.24869 2 1.03142
    endloop
  endfacet
  facet normal -0.218228 0 0.975898
    outer loop
      vertex 8.24869 0 1.03142
      vertex 8.18738 2 1.01771
      vertex 8.18738 0 1.01771
    endloop
  endfacet
  facet normal 0.917765 -0 0.397125
    outer loop
      vertex 7.07022 0 1.63188
      vertex 7.09517 2 1.57422
      vertex 7.07022 2 1.63188
    endloop
  endfacet
  facet normal 0.917765 0 0.397125
    outer loop
      vertex 7.09517 2 1.57422
      vertex 7.07022 0 1.63188
      vertex 7.09517 0 1.57422
    endloop
  endfacet
  facet normal -0.338776 0 0.940867
    outer loop
      vertex 8.30902 2 1.04894
      vertex 8.36812 0 1.07022
      vertex 8.36812 2 1.07022
    endloop
  endfacet
  facet normal -0.338776 0 0.940867
    outer loop
      vertex 8.36812 0 1.07022
      vertex 8.30902 2 1.04894
      vertex 8.30902 0 1.04894
    endloop
  endfacet
  facet normal -0.661216 0 0.750195
    outer loop
      vertex 8.63742 2 1.22949
      vertex 8.68455 0 1.27103
      vertex 8.68455 2 1.27103
    endloop
  endfacet
  facet normal -0.661216 0 0.750195
    outer loop
      vertex 8.68455 0 1.27103
      vertex 8.63742 2 1.22949
      vertex 8.63742 0 1.22949
    endloop
  endfacet
  facet normal 0.940867 0 -0.338776
    outer loop
      vertex 7.07022 0 2.36812
      vertex 7.04894 2 2.30902
      vertex 7.07022 2 2.36812
    endloop
  endfacet
  facet normal 0.940867 0 -0.338776
    outer loop
      vertex 7.04894 2 2.30902
      vertex 7.07022 0 2.36812
      vertex 7.04894 0 2.30902
    endloop
  endfacet
  facet normal 0.707107 -0 0.707107
    outer loop
      vertex 7.27103 0 1.31545
      vertex 7.31545 2 1.27103
      vertex 7.27103 2 1.31545
    endloop
  endfacet
  facet normal 0.707107 0 0.707107
    outer loop
      vertex 7.31545 2 1.27103
      vertex 7.27103 0 1.31545
      vertex 7.31545 0 1.27103
    endloop
  endfacet
  facet normal 0.860762 0 -0.509008
    outer loop
      vertex 7.15567 0 2.53583
      vertex 7.12369 2 2.48175
      vertex 7.15567 2 2.53583
    endloop
  endfacet
  facet normal 0.860762 0 -0.509008
    outer loop
      vertex 7.12369 2 2.48175
      vertex 7.15567 0 2.53583
      vertex 7.12369 0 2.48175
    endloop
  endfacet
  facet normal -0.278881 0 0.960326
    outer loop
      vertex 8.24869 2 1.03142
      vertex 8.30902 0 1.04894
      vertex 8.30902 2 1.04894
    endloop
  endfacet
  facet normal -0.278881 0 0.960326
    outer loop
      vertex 8.30902 0 1.04894
      vertex 8.24869 2 1.03142
      vertex 8.24869 0 1.03142
    endloop
  endfacet
  facet normal -0.562136 0 -0.827045
    outer loop
      vertex 8.53583 0 2.84433
      vertex 8.58778 2 2.80902
      vertex 8.58778 0 2.80902
    endloop
  endfacet
  facet normal -0.562136 0 -0.827045
    outer loop
      vertex 8.58778 2 2.80902
      vertex 8.53583 0 2.84433
      vertex 8.53583 2 2.84433
    endloop
  endfacet
  facet normal -0.960326 0 -0.278881
    outer loop
      vertex 8.96858 0 2.24869
      vertex 8.95106 2 2.30902
      vertex 8.96858 2 2.24869
    endloop
  endfacet
  facet normal -0.960326 -0 -0.278881
    outer loop
      vertex 8.95106 2 2.30902
      vertex 8.96858 0 2.24869
      vertex 8.95106 0 2.30902
    endloop
  endfacet
  facet normal -0.890995 0 -0.454014
    outer loop
      vertex 8.90483 0 2.42578
      vertex 8.87631 2 2.48175
      vertex 8.90483 2 2.42578
    endloop
  endfacet
  facet normal -0.890995 -0 -0.454014
    outer loop
      vertex 8.87631 2 2.48175
      vertex 8.90483 0 2.42578
      vertex 8.87631 0 2.48175
    endloop
  endfacet
  facet normal 0.890995 0 -0.454014
    outer loop
      vertex 7.12369 0 2.48175
      vertex 7.09517 2 2.42578
      vertex 7.12369 2 2.48175
    endloop
  endfacet
  facet normal 0.890995 0 -0.454014
    outer loop
      vertex 7.09517 2 2.42578
      vertex 7.12369 0 2.48175
      vertex 7.09517 0 2.42578
    endloop
  endfacet
  facet normal 0.562062 0 -0.827095
    outer loop
      vertex 7.41221 0 2.80902
      vertex 7.46417 2 2.84433
      vertex 7.46417 0 2.84433
    endloop
  endfacet
  facet normal 0.562062 0 -0.827095
    outer loop
      vertex 7.46417 2 2.84433
      vertex 7.41221 0 2.80902
      vertex 7.41221 2 2.80902
    endloop
  endfacet
  facet normal 0.960326 0 -0.278881
    outer loop
      vertex 7.04894 0 2.30902
      vertex 7.03142 2 2.24869
      vertex 7.04894 2 2.30902
    endloop
  endfacet
  facet normal 0.960326 0 -0.278881
    outer loop
      vertex 7.03142 2 2.24869
      vertex 7.04894 0 2.30902
      vertex 7.03142 0 2.24869
    endloop
  endfacet
  facet normal -0.750195 0 0.661216
    outer loop
      vertex 8.72897 0 1.31545
      vertex 8.77051 2 1.36258
      vertex 8.72897 2 1.31545
    endloop
  endfacet
  facet normal -0.750195 0 0.661216
    outer loop
      vertex 8.77051 2 1.36258
      vertex 8.72897 0 1.31545
      vertex 8.77051 0 1.36258
    endloop
  endfacet
  facet normal -0.612959 0 0.790114
    outer loop
      vertex 8.58778 2 1.19098
      vertex 8.63742 0 1.22949
      vertex 8.63742 2 1.22949
    endloop
  endfacet
  facet normal -0.612959 0 0.790114
    outer loop
      vertex 8.63742 0 1.22949
      vertex 8.58778 2 1.19098
      vertex 8.58778 0 1.19098
    endloop
  endfacet
  facet normal 0.661216 0 0.750195
    outer loop
      vertex 7.31545 2 1.27103
      vertex 7.36258 0 1.22949
      vertex 7.36258 2 1.22949
    endloop
  endfacet
  facet normal 0.661216 0 0.750195
    outer loop
      vertex 7.36258 0 1.22949
      vertex 7.31545 2 1.27103
      vertex 7.31545 0 1.27103
    endloop
  endfacet
  facet normal 0.218228 0 0.975898
    outer loop
      vertex 7.75131 2 1.03142
      vertex 7.81262 0 1.01771
      vertex 7.81262 2 1.01771
    endloop
  endfacet
  facet normal 0.218228 0 0.975898
    outer loop
      vertex 7.81262 0 1.01771
      vertex 7.75131 2 1.03142
      vertex 7.75131 0 1.03142
    endloop
  endfacet
  facet normal -0.661216 0 -0.750195
    outer loop
      vertex 8.63742 0 2.77051
      vertex 8.68455 2 2.72897
      vertex 8.68455 0 2.72897
    endloop
  endfacet
  facet normal -0.661216 0 -0.750195
    outer loop
      vertex 8.68455 2 2.72897
      vertex 8.63742 0 2.77051
      vertex 8.63742 2 2.77051
    endloop
  endfacet
  facet normal -0.454014 0 -0.890995
    outer loop
      vertex 8.42578 0 2.90483
      vertex 8.48175 2 2.87631
      vertex 8.48175 0 2.87631
    endloop
  endfacet
  facet normal -0.454014 0 -0.890995
    outer loop
      vertex 8.48175 2 2.87631
      vertex 8.42578 0 2.90483
      vertex 8.42578 2 2.90483
    endloop
  endfacet
  facet normal -0.827095 0 0.562062
    outer loop
      vertex 8.80902 0 1.41221
      vertex 8.84433 2 1.46417
      vertex 8.80902 2 1.41221
    endloop
  endfacet
  facet normal -0.827095 0 0.562062
    outer loop
      vertex 8.84433 2 1.46417
      vertex 8.80902 0 1.41221
      vertex 8.84433 0 1.46417
    endloop
  endfacet
  facet normal 0.0942382 0 -0.99555
    outer loop
      vertex 7.87467 0 2.99211
      vertex 7.93721 2 2.99803
      vertex 7.93721 0 2.99803
    endloop
  endfacet
  facet normal 0.0942382 0 -0.99555
    outer loop
      vertex 7.93721 2 2.99803
      vertex 7.87467 0 2.99211
      vertex 7.87467 2 2.99211
    endloop
  endfacet
  facet normal -0.338776 0 -0.940867
    outer loop
      vertex 8.30902 0 2.95106
      vertex 8.36812 2 2.92978
      vertex 8.36812 0 2.92978
    endloop
  endfacet
  facet normal -0.338776 0 -0.940867
    outer loop
      vertex 8.36812 2 2.92978
      vertex 8.30902 0 2.95106
      vertex 8.30902 2 2.95106
    endloop
  endfacet
  facet normal 0.0940804 0 0.995565
    outer loop
      vertex 7.87467 2 1.00788
      vertex 7.93721 0 1.00197
      vertex 7.93721 2 1.00197
    endloop
  endfacet
  facet normal 0.0940804 0 0.995565
    outer loop
      vertex 7.93721 0 1.00197
      vertex 7.87467 2 1.00788
      vertex 7.87467 0 1.00788
    endloop
  endfacet
  facet normal 0.790114 0 -0.612959
    outer loop
      vertex 7.22949 0 2.63742
      vertex 7.19098 2 2.58778
      vertex 7.22949 2 2.63742
    endloop
  endfacet
  facet normal 0.790114 0 -0.612959
    outer loop
      vertex 7.19098 2 2.58778
      vertex 7.22949 0 2.63742
      vertex 7.19098 0 2.58778
    endloop
  endfacet
  facet normal -0.397125 0 -0.917765
    outer loop
      vertex 8.36812 0 2.92978
      vertex 8.42578 2 2.90483
      vertex 8.42578 0 2.90483
    endloop
  endfacet
  facet normal -0.397125 0 -0.917765
    outer loop
      vertex 8.42578 2 2.90483
      vertex 8.36812 0 2.92978
      vertex 8.36812 2 2.92978
    endloop
  endfacet
  facet normal 0.995565 -0 0.0940804
    outer loop
      vertex 7.00197 0 1.93721
      vertex 7.00788 2 1.87467
      vertex 7.00197 2 1.93721
    endloop
  endfacet
  facet normal 0.995565 0 0.0940804
    outer loop
      vertex 7.00788 2 1.87467
      vertex 7.00197 0 1.93721
      vertex 7.00788 0 1.87467
    endloop
  endfacet
  facet normal 0.509008 0 0.860762
    outer loop
      vertex 7.46417 2 1.15567
      vertex 7.51825 0 1.12369
      vertex 7.51825 2 1.12369
    endloop
  endfacet
  facet normal 0.509008 0 0.860762
    outer loop
      vertex 7.51825 0 1.12369
      vertex 7.46417 2 1.15567
      vertex 7.46417 0 1.15567
    endloop
  endfacet
  facet normal -0.0940804 0 0.995565
    outer loop
      vertex 8.06279 2 1.00197
      vertex 8.12533 0 1.00788
      vertex 8.12533 2 1.00788
    endloop
  endfacet
  facet normal -0.0940804 0 0.995565
    outer loop
      vertex 8.12533 0 1.00788
      vertex 8.06279 2 1.00197
      vertex 8.06279 0 1.00197
    endloop
  endfacet
  facet normal -0.960326 0 0.278881
    outer loop
      vertex 8.95106 0 1.69098
      vertex 8.96858 2 1.75131
      vertex 8.95106 2 1.69098
    endloop
  endfacet
  facet normal -0.960326 0 0.278881
    outer loop
      vertex 8.96858 2 1.75131
      vertex 8.95106 0 1.69098
      vertex 8.96858 0 1.75131
    endloop
  endfacet
  facet normal 0.890995 -0 0.454014
    outer loop
      vertex 7.09517 0 1.57422
      vertex 7.12369 2 1.51825
      vertex 7.09517 2 1.57422
    endloop
  endfacet
  facet normal 0.890995 0 0.454014
    outer loop
      vertex 7.12369 2 1.51825
      vertex 7.09517 0 1.57422
      vertex 7.12369 0 1.51825
    endloop
  endfacet
  facet normal 0.613037 0 -0.790055
    outer loop
      vertex 7.36258 0 2.77051
      vertex 7.41221 2 2.80902
      vertex 7.41221 0 2.80902
    endloop
  endfacet
  facet normal 0.613037 0 -0.790055
    outer loop
      vertex 7.41221 2 2.80902
      vertex 7.36258 0 2.77051
      vertex 7.36258 2 2.77051
    endloop
  endfacet
  facet normal -0.975898 0 0.218228
    outer loop
      vertex 8.96858 0 1.75131
      vertex 8.98229 2 1.81262
      vertex 8.96858 2 1.75131
    endloop
  endfacet
  facet normal -0.975898 0 0.218228
    outer loop
      vertex 8.98229 2 1.81262
      vertex 8.96858 0 1.75131
      vertex 8.98229 0 1.81262
    endloop
  endfacet
  facet normal 0.397125 0 -0.917765
    outer loop
      vertex 7.57422 0 2.90483
      vertex 7.63188 2 2.92978
      vertex 7.63188 0 2.92978
    endloop
  endfacet
  facet normal 0.397125 0 -0.917765
    outer loop
      vertex 7.63188 2 2.92978
      vertex 7.57422 0 2.90483
      vertex 7.57422 2 2.90483
    endloop
  endfacet
  facet normal 0.156314 0 -0.987707
    outer loop
      vertex 7.81262 0 2.98229
      vertex 7.87467 2 2.99211
      vertex 7.87467 0 2.99211
    endloop
  endfacet
  facet normal 0.156314 0 -0.987707
    outer loop
      vertex 7.87467 2 2.99211
      vertex 7.81262 0 2.98229
      vertex 7.81262 2 2.98229
    endloop
  endfacet
  facet normal 0.338776 0 0.940867
    outer loop
      vertex 7.63188 2 1.07022
      vertex 7.69098 0 1.04894
      vertex 7.69098 2 1.04894
    endloop
  endfacet
  facet normal 0.338776 0 0.940867
    outer loop
      vertex 7.69098 0 1.04894
      vertex 7.63188 2 1.07022
      vertex 7.63188 0 1.07022
    endloop
  endfacet
  facet normal -0.917765 0 -0.397125
    outer loop
      vertex 8.92978 0 2.36812
      vertex 8.90483 2 2.42578
      vertex 8.92978 2 2.36812
    endloop
  endfacet
  facet normal -0.917765 -0 -0.397125
    outer loop
      vertex 8.90483 2 2.42578
      vertex 8.92978 0 2.36812
      vertex 8.90483 0 2.42578
    endloop
  endfacet
  facet normal -0.031359 0 -0.999508
    outer loop
      vertex 8 0 3
      vertex 8.06279 2 2.99803
      vertex 8.06279 0 2.99803
    endloop
  endfacet
  facet normal -0.031359 0 -0.999508
    outer loop
      vertex 8.06279 2 2.99803
      vertex 8 0 3
      vertex 8 2 3
    endloop
  endfacet
  facet normal -0.860762 0 -0.509008
    outer loop
      vertex 8.87631 0 2.48175
      vertex 8.84433 2 2.53583
      vertex 8.87631 2 2.48175
    endloop
  endfacet
  facet normal -0.860762 -0 -0.509008
    outer loop
      vertex 8.84433 2 2.53583
      vertex 8.87631 0 2.48175
      vertex 8.84433 0 2.53583
    endloop
  endfacet
  facet normal -0.454014 0 0.890995
    outer loop
      vertex 8.42578 2 1.09517
      vertex 8.48175 0 1.12369
      vertex 8.48175 2 1.12369
    endloop
  endfacet
  facet normal -0.454014 0 0.890995
    outer loop
      vertex 8.48175 0 1.12369
      vertex 8.42578 2 1.09517
      vertex 8.42578 0 1.09517
    endloop
  endfacet
  facet normal 0.218228 0 -0.975898
    outer loop
      vertex 7.75131 0 2.96858
      vertex 7.81262 2 2.98229
      vertex 7.81262 0 2.98229
    endloop
  endfacet
  facet normal 0.218228 0 -0.975898
    outer loop
      vertex 7.81262 2 2.98229
      vertex 7.75131 0 2.96858
      vertex 7.75131 2 2.96858
    endloop
  endfacet
  facet normal 0.338776 0 -0.940867
    outer loop
      vertex 7.63188 0 2.92978
      vertex 7.69098 2 2.95106
      vertex 7.69098 0 2.95106
    endloop
  endfacet
  facet normal 0.338776 0 -0.940867
    outer loop
      vertex 7.69098 2 2.95106
      vertex 7.63188 0 2.92978
      vertex 7.63188 2 2.92978
    endloop
  endfacet
  facet normal -0.99555 0 0.0942382
    outer loop
      vertex 8.99211 0 1.87467
      vertex 8.99803 2 1.93721
      vertex 8.99211 2 1.87467
    endloop
  endfacet
  facet normal -0.99555 0 0.0942382
    outer loop
      vertex 8.99803 2 1.93721
      vertex 8.99211 0 1.87467
      vertex 8.99803 0 1.93721
    endloop
  endfacet
  facet normal 0.613037 0 0.790055
    outer loop
      vertex 7.36258 2 1.22949
      vertex 7.41221 0 1.19098
      vertex 7.41221 2 1.19098
    endloop
  endfacet
  facet normal 0.613037 0 0.790055
    outer loop
      vertex 7.41221 0 1.19098
      vertex 7.36258 2 1.22949
      vertex 7.36258 0 1.22949
    endloop
  endfacet
  facet normal 0.750195 0 -0.661216
    outer loop
      vertex 7.27103 0 2.68455
      vertex 7.22949 2 2.63742
      vertex 7.27103 2 2.68455
    endloop
  endfacet
  facet normal 0.750195 0 -0.661216
    outer loop
      vertex 7.22949 2 2.63742
      vertex 7.27103 0 2.68455
      vertex 7.22949 0 2.63742
    endloop
  endfacet
  facet normal 0.031359 0 -0.999508
    outer loop
      vertex 7.93721 0 2.99803
      vertex 8 2 3
      vertex 8 0 3
    endloop
  endfacet
  facet normal 0.031359 0 -0.999508
    outer loop
      vertex 8 2 3
      vertex 7.93721 0 2.99803
      vertex 7.93721 2 2.99803
    endloop
  endfacet
  facet normal -0.790055 0 0.613037
    outer loop
      vertex 8.77051 0 1.36258
      vertex 8.80902 2 1.41221
      vertex 8.77051 2 1.36258
    endloop
  endfacet
  facet normal -0.790055 0 0.613037
    outer loop
      vertex 8.80902 2 1.41221
      vertex 8.77051 0 1.36258
      vertex 8.80902 0 1.41221
    endloop
  endfacet
  facet normal -0.612959 0 -0.790114
    outer loop
      vertex 8.58778 0 2.80902
      vertex 8.63742 2 2.77051
      vertex 8.63742 0 2.77051
    endloop
  endfacet
  facet normal -0.612959 0 -0.790114
    outer loop
      vertex 8.63742 2 2.77051
      vertex 8.58778 0 2.80902
      vertex 8.58778 2 2.80902
    endloop
  endfacet
  facet normal -0.397125 0 0.917765
    outer loop
      vertex 8.36812 2 1.07022
      vertex 8.42578 0 1.09517
      vertex 8.42578 2 1.09517
    endloop
  endfacet
  facet normal -0.397125 0 0.917765
    outer loop
      vertex 8.42578 0 1.09517
      vertex 8.36812 2 1.07022
      vertex 8.36812 0 1.07022
    endloop
  endfacet
  facet normal 0.960326 -0 0.278881
    outer loop
      vertex 7.03142 0 1.75131
      vertex 7.04894 2 1.69098
      vertex 7.03142 2 1.75131
    endloop
  endfacet
  facet normal 0.960326 0 0.278881
    outer loop
      vertex 7.04894 2 1.69098
      vertex 7.03142 0 1.75131
      vertex 7.04894 0 1.69098
    endloop
  endfacet
  facet normal 0.454014 0 -0.890995
    outer loop
      vertex 7.51825 0 2.87631
      vertex 7.57422 2 2.90483
      vertex 7.57422 0 2.90483
    endloop
  endfacet
  facet normal 0.454014 0 -0.890995
    outer loop
      vertex 7.57422 2 2.90483
      vertex 7.51825 0 2.87631
      vertex 7.51825 2 2.87631
    endloop
  endfacet
  facet normal -0.917765 0 0.397125
    outer loop
      vertex 8.90483 0 1.57422
      vertex 8.92978 2 1.63188
      vertex 8.90483 2 1.57422
    endloop
  endfacet
  facet normal -0.917765 0 0.397125
    outer loop
      vertex 8.92978 2 1.63188
      vertex 8.90483 0 1.57422
      vertex 8.92978 0 1.63188
    endloop
  endfacet
  facet normal -0.890995 0 0.454014
    outer loop
      vertex 8.87631 0 1.51825
      vertex 8.90483 2 1.57422
      vertex 8.87631 2 1.51825
    endloop
  endfacet
  facet normal -0.890995 0 0.454014
    outer loop
      vertex 8.90483 2 1.57422
      vertex 8.87631 0 1.51825
      vertex 8.90483 0 1.57422
    endloop
  endfacet
  facet normal -0.940867 0 0.338776
    outer loop
      vertex 8.92978 0 1.63188
      vertex 8.95106 2 1.69098
      vertex 8.92978 2 1.63188
    endloop
  endfacet
  facet normal -0.940867 0 0.338776
    outer loop
      vertex 8.95106 2 1.69098
      vertex 8.92978 0 1.63188
      vertex 8.95106 0 1.69098
    endloop
  endfacet
  facet normal 0.790055 -0 0.613037
    outer loop
      vertex 7.19098 0 1.41221
      vertex 7.22949 2 1.36258
      vertex 7.19098 2 1.41221
    endloop
  endfacet
  facet normal 0.790055 0 0.613037
    outer loop
      vertex 7.22949 2 1.36258
      vertex 7.19098 0 1.41221
      vertex 7.22949 0 1.36258
    endloop
  endfacet
  facet normal 0.860762 -0 0.509008
    outer loop
      vertex 7.12369 0 1.51825
      vertex 7.15567 2 1.46417
      vertex 7.12369 2 1.51825
    endloop
  endfacet
  facet normal 0.860762 0 0.509008
    outer loop
      vertex 7.15567 2 1.46417
      vertex 7.12369 0 1.51825
      vertex 7.15567 0 1.46417
    endloop
  endfacet
  facet normal -0.827045 0 -0.562136
    outer loop
      vertex 8.84433 0 2.53583
      vertex 8.80902 2 2.58778
      vertex 8.84433 2 2.53583
    endloop
  endfacet
  facet normal -0.827045 -0 -0.562136
    outer loop
      vertex 8.80902 2 2.58778
      vertex 8.84433 0 2.53583
      vertex 8.80902 0 2.58778
    endloop
  endfacet
  facet normal -0.031359 0 0.999508
    outer loop
      vertex 8 2 1
      vertex 8.06279 0 1.00197
      vertex 8.06279 2 1.00197
    endloop
  endfacet
  facet normal -0.031359 0 0.999508
    outer loop
      vertex 8.06279 0 1.00197
      vertex 8 2 1
      vertex 8 0 1
    endloop
  endfacet
  facet normal 0.661216 0 -0.750195
    outer loop
      vertex 7.31545 0 2.72897
      vertex 7.36258 2 2.77051
      vertex 7.36258 0 2.77051
    endloop
  endfacet
  facet normal 0.661216 0 -0.750195
    outer loop
      vertex 7.36258 2 2.77051
      vertex 7.31545 0 2.72897
      vertex 7.31545 2 2.72897
    endloop
  endfacet
  facet normal -0.940867 0 -0.338776
    outer loop
      vertex 8.95106 0 2.30902
      vertex 8.92978 2 2.36812
      vertex 8.95106 2 2.30902
    endloop
  endfacet
  facet normal -0.940867 -0 -0.338776
    outer loop
      vertex 8.92978 2 2.36812
      vertex 8.95106 0 2.30902
      vertex 8.92978 0 2.36812
    endloop
  endfacet
  facet normal -0.999508 0 0.031359
    outer loop
      vertex 8.99803 0 1.93721
      vertex 9 2 2
      vertex 8.99803 2 1.93721
    endloop
  endfacet
  facet normal -0.999508 0 0.031359
    outer loop
      vertex 9 2 2
      vertex 8.99803 0 1.93721
      vertex 9 0 2
    endloop
  endfacet
  facet normal 0.827045 0 -0.562136
    outer loop
      vertex 7.19098 0 2.58778
      vertex 7.15567 2 2.53583
      vertex 7.19098 2 2.58778
    endloop
  endfacet
  facet normal 0.827045 0 -0.562136
    outer loop
      vertex 7.15567 2 2.53583
      vertex 7.19098 0 2.58778
      vertex 7.15567 0 2.53583
    endloop
  endfacet
  facet normal -0.278881 0 -0.960326
    outer loop
      vertex 8.24869 0 2.96858
      vertex 8.30902 2 2.95106
      vertex 8.30902 0 2.95106
    endloop
  endfacet
  facet normal -0.278881 0 -0.960326
    outer loop
      vertex 8.30902 2 2.95106
      vertex 8.24869 0 2.96858
      vertex 8.24869 2 2.96858
    endloop
  endfacet
  facet normal 0.995565 0 -0.0940804
    outer loop
      vertex 7.00788 0 2.12533
      vertex 7.00197 2 2.06279
      vertex 7.00788 2 2.12533
    endloop
  endfacet
  facet normal 0.995565 0 -0.0940804
    outer loop
      vertex 7.00197 2 2.06279
      vertex 7.00788 0 2.12533
      vertex 7.00197 0 2.06279
    endloop
  endfacet
  facet normal 0.509008 0 -0.860762
    outer loop
      vertex 7.46417 0 2.84433
      vertex 7.51825 2 2.87631
      vertex 7.51825 0 2.87631
    endloop
  endfacet
  facet normal 0.509008 0 -0.860762
    outer loop
      vertex 7.51825 2 2.87631
      vertex 7.46417 0 2.84433
      vertex 7.46417 2 2.84433
    endloop
  endfacet
  facet normal -0.0942382 0 -0.99555
    outer loop
      vertex 8.06279 0 2.99803
      vertex 8.12533 2 2.99211
      vertex 8.12533 0 2.99211
    endloop
  endfacet
  facet normal -0.0942382 0 -0.99555
    outer loop
      vertex 8.12533 2 2.99211
      vertex 8.06279 0 2.99803
      vertex 8.06279 2 2.99803
    endloop
  endfacet
  facet normal -0.156469 0 0.987683
    outer loop
      vertex 8.12533 2 1.00788
      vertex 8.18738 0 1.01771
      vertex 8.18738 2 1.01771
    endloop
  endfacet
  facet normal -0.156469 0 0.987683
    outer loop
      vertex 8.18738 0 1.01771
      vertex 8.12533 2 1.00788
      vertex 8.12533 0 1.00788
    endloop
  endfacet
  facet normal -0.562136 0 0.827045
    outer loop
      vertex 8.53583 2 1.15567
      vertex 8.58778 0 1.19098
      vertex 8.58778 2 1.19098
    endloop
  endfacet
  facet normal -0.562136 0 0.827045
    outer loop
      vertex 8.58778 0 1.19098
      vertex 8.53583 2 1.15567
      vertex 8.53583 0 1.15567
    endloop
  endfacet
  facet normal 0.827095 -0 0.562062
    outer loop
      vertex 7.15567 0 1.46417
      vertex 7.19098 2 1.41221
      vertex 7.15567 2 1.46417
    endloop
  endfacet
  facet normal 0.827095 0 0.562062
    outer loop
      vertex 7.19098 2 1.41221
      vertex 7.15567 0 1.46417
      vertex 7.19098 0 1.41221
    endloop
  endfacet
  facet normal 0.987683 -0 0.156469
    outer loop
      vertex 7.00788 0 1.87467
      vertex 7.01771 2 1.81262
      vertex 7.00788 2 1.87467
    endloop
  endfacet
  facet normal 0.987683 0 0.156469
    outer loop
      vertex 7.01771 2 1.81262
      vertex 7.00788 0 1.87467
      vertex 7.01771 0 1.81262
    endloop
  endfacet
  facet normal 0.031359 0 0.999508
    outer loop
      vertex 7.93721 2 1.00197
      vertex 8 0 1
      vertex 8 2 1
    endloop
  endfacet
  facet normal 0.031359 0 0.999508
    outer loop
      vertex 8 0 1
      vertex 7.93721 2 1.00197
      vertex 7.93721 0 1.00197
    endloop
  endfacet
  facet normal -0.707107 0 0.707107
    outer loop
      vertex 8.68455 0 1.27103
      vertex 8.72897 2 1.31545
      vertex 8.68455 2 1.27103
    endloop
  endfacet
  facet normal -0.707107 0 0.707107
    outer loop
      vertex 8.72897 2 1.31545
      vertex 8.68455 0 1.27103
      vertex 8.72897 0 1.31545
    endloop
  endfacet
  facet normal 0.278881 0 0.960326
    outer loop
      vertex 7.69098 2 1.04894
      vertex 7.75131 0 1.03142
      vertex 7.75131 2 1.03142
    endloop
  endfacet
  facet normal 0.278881 0 0.960326
    outer loop
      vertex 7.75131 0 1.03142
      vertex 7.69098 2 1.04894
      vertex 7.69098 0 1.04894
    endloop
  endfacet
  facet normal -0.860762 0 0.509008
    outer loop
      vertex 8.84433 0 1.46417
      vertex 8.87631 2 1.51825
      vertex 8.84433 2 1.46417
    endloop
  endfacet
  facet normal -0.860762 0 0.509008
    outer loop
      vertex 8.87631 2 1.51825
      vertex 8.84433 0 1.46417
      vertex 8.87631 0 1.51825
    endloop
  endfacet
  facet normal 0.975898 0 -0.218228
    outer loop
      vertex 7.03142 0 2.24869
      vertex 7.01771 2 2.18738
      vertex 7.03142 2 2.24869
    endloop
  endfacet
  facet normal 0.975898 0 -0.218228
    outer loop
      vertex 7.01771 2 2.18738
      vertex 7.03142 0 2.24869
      vertex 7.01771 0 2.18738
    endloop
  endfacet
  facet normal 0.975898 -0 0.218228
    outer loop
      vertex 7.01771 0 1.81262
      vertex 7.03142 2 1.75131
      vertex 7.01771 2 1.81262
    endloop
  endfacet
  facet normal 0.975898 0 0.218228
    outer loop
      vertex 7.03142 2 1.75131
      vertex 7.01771 0 1.81262
      vertex 7.03142 0 1.75131
    endloop
  endfacet
  facet normal -0.987707 0 0.156314
    outer loop
      vertex 8.98229 0 1.81262
      vertex 8.99211 2 1.87467
      vertex 8.98229 2 1.81262
    endloop
  endfacet
  facet normal -0.987707 0 0.156314
    outer loop
      vertex 8.99211 2 1.87467
      vertex 8.98229 0 1.81262
      vertex 8.99211 0 1.87467
    endloop
  endfacet
  facet normal 0.156469 0 0.987683
    outer loop
      vertex 7.81262 2 1.01771
      vertex 7.87467 0 1.00788
      vertex 7.87467 2 1.00788
    endloop
  endfacet
  facet normal 0.156469 0 0.987683
    outer loop
      vertex 7.87467 0 1.00788
      vertex 7.81262 2 1.01771
      vertex 7.81262 0 1.01771
    endloop
  endfacet
  facet normal -0.218228 0 -0.975898
    outer loop
      vertex 8.18738 0 2.98229
      vertex 8.24869 2 2.96858
      vertex 8.24869 0 2.96858
    endloop
  endfacet
  facet normal -0.218228 0 -0.975898
    outer loop
      vertex 8.24869 2 2.96858
      vertex 8.18738 0 2.98229
      vertex 8.18738 2 2.98229
    endloop
  endfacet
  facet normal -0.790114 0 -0.612959
    outer loop
      vertex 8.80902 0 2.58778
      vertex 8.77051 2 2.63742
      vertex 8.80902 2 2.58778
    endloop
  endfacet
  facet normal -0.790114 -0 -0.612959
    outer loop
      vertex 8.77051 2 2.63742
      vertex 8.80902 0 2.58778
      vertex 8.77051 0 2.63742
    endloop
  endfacet
  facet normal 0.987683 0 -0.156469
    outer loop
      vertex 7.01771 0 2.18738
      vertex 7.00788 2 2.12533
      vertex 7.01771 2 2.18738
    endloop
  endfacet
  facet normal 0.987683 0 -0.156469
    outer loop
      vertex 7.00788 2 2.12533
      vertex 7.01771 0 2.18738
      vertex 7.00788 0 2.12533
    endloop
  endfacet
  facet normal 0.454014 0 0.890995
    outer loop
      vertex 7.51825 2 1.12369
      vertex 7.57422 0 1.09517
      vertex 7.57422 2 1.09517
    endloop
  endfacet
  facet normal 0.454014 0 0.890995
    outer loop
      vertex 7.57422 0 1.09517
      vertex 7.51825 2 1.12369
      vertex 7.51825 0 1.12369
    endloop
  endfacet
  facet normal -0.156314 0 -0.987707
    outer loop
      vertex 8.12533 0 2.99211
      vertex 8.18738 2 2.98229
      vertex 8.18738 0 2.98229
    endloop
  endfacet
  facet normal -0.156314 0 -0.987707
    outer loop
      vertex 8.18738 2 2.98229
      vertex 8.12533 0 2.99211
      vertex 8.12533 2 2.99211
    endloop
  endfacet
  facet normal 0.999508 0 -0.031359
    outer loop
      vertex 7.00197 0 2.06279
      vertex 7 2 2
      vertex 7.00197 2 2.06279
    endloop
  endfacet
  facet normal 0.999508 0 -0.031359
    outer loop
      vertex 7 2 2
      vertex 7.00197 0 2.06279
      vertex 7 0 2
    endloop
  endfacet
  facet normal 0.999508 -0 0.031359
    outer loop
      vertex 7 0 2
      vertex 7.00197 2 1.93721
      vertex 7 2 2
    endloop
  endfacet
  facet normal 0.999508 0 0.031359
    outer loop
      vertex 7.00197 2 1.93721
      vertex 7 0 2
      vertex 7.00197 0 1.93721
    endloop
  endfacet
  facet normal 0.562062 0 0.827095
    outer loop
      vertex 7.41221 2 1.19098
      vertex 7.46417 0 1.15567
      vertex 7.46417 2 1.15567
    endloop
  endfacet
  facet normal 0.562062 0 0.827095
    outer loop
      vertex 7.46417 0 1.15567
      vertex 7.41221 2 1.19098
      vertex 7.41221 0 1.19098
    endloop
  endfacet
  facet normal 0.397125 0 0.917765
    outer loop
      vertex 7.57422 2 1.09517
      vertex 7.63188 0 1.07022
      vertex 7.63188 2 1.07022
    endloop
  endfacet
  facet normal 0.397125 0 0.917765
    outer loop
      vertex 7.63188 0 1.07022
      vertex 7.57422 2 1.09517
      vertex 7.57422 0 1.09517
    endloop
  endfacet
  facet normal 0.917765 0 -0.397125
    outer loop
      vertex 7.09517 0 2.42578
      vertex 7.07022 2 2.36812
      vertex 7.09517 2 2.42578
    endloop
  endfacet
  facet normal 0.917765 0 -0.397125
    outer loop
      vertex 7.07022 2 2.36812
      vertex 7.09517 0 2.42578
      vertex 7.07022 0 2.36812
    endloop
  endfacet
endsolid OpenSCAD_Model
