solid OpenSCAD_Model
  facet normal 0.999507 0.0313985 0
    outer loop
      vertex 4 0 3
      vertex 3.99211 0.251162 0
      vertex 3.99211 0.251162 3
    endloop
  endfacet
  facet normal 0.999507 0.0313985 0
    outer loop
      vertex 3.99211 0.251162 0
      vertex 4 0 3
      vertex 4 0 0
    endloop
  endfacet
  facet normal 0.995561 0.0941157 0
    outer loop
      vertex 3.99211 0.251162 3
      vertex 3.96846 0.501333 0
      vertex 3.96846 0.501333 3
    endloop
  endfacet
  facet normal 0.995561 0.0941157 0
    outer loop
      vertex 3.96846 0.501333 0
      vertex 3.99211 0.251162 3
      vertex 3.99211 0.251162 0
    endloop
  endfacet
  facet normal 0.987688 0.156435 0
    outer loop
      vertex 3.96846 0.501333 3
      vertex 3.92915 0.749525 0
      vertex 3.92915 0.749525 3
    endloop
  endfacet
  facet normal 0.987688 0.156435 0
    outer loop
      vertex 3.92915 0.749525 0
      vertex 3.96846 0.501333 3
      vertex 3.96846 0.501333 0
    endloop
  endfacet
  facet normal 0.975914 0.218156 0
    outer loop
      vertex 3.92915 0.749525 3
      vertex 3.87433 0.99476 0
      vertex 3.87433 0.99476 3
    endloop
  endfacet
  facet normal 0.975914 0.218156 0
    outer loop
      vertex 3.87433 0.99476 0
      vertex 3.92915 0.749525 3
      vertex 3.92915 0.749525 0
    endloop
  endfacet
  facet normal 0.960301 0.278965 0
    outer loop
      vertex 3.87433 0.99476 3
      vertex 3.80423 1.23607 0
      vertex 3.80423 1.23607 3
    endloop
  endfacet
  facet normal 0.960301 0.278965 0
    outer loop
      vertex 3.80423 1.23607 0
      vertex 3.87433 0.99476 3
      vertex 3.87433 0.99476 0
    endloop
  endfacet
  facet normal 0.940881 0.338738 0
    outer loop
      vertex 3.80423 1.23607 3
      vertex 3.71911 1.4725 0
      vertex 3.71911 1.4725 3
    endloop
  endfacet
  facet normal 0.940881 0.338738 0
    outer loop
      vertex 3.71911 1.4725 0
      vertex 3.80423 1.23607 3
      vertex 3.80423 1.23607 0
    endloop
  endfacet
  facet normal 0.917752 0.397154 0
    outer loop
      vertex 3.71911 1.4725 3
      vertex 3.61931 1.70312 0
      vertex 3.61931 1.70312 3
    endloop
  endfacet
  facet normal 0.917752 0.397154 0
    outer loop
      vertex 3.61931 1.70312 0
      vertex 3.71911 1.4725 3
      vertex 3.71911 1.4725 0
    endloop
  endfacet
  facet normal 0.891003 0.453998 0
    outer loop
      vertex 3.61931 1.70312 3
      vertex 3.50523 1.92701 0
      vertex 3.50523 1.92701 3
    endloop
  endfacet
  facet normal 0.891003 0.453998 0
    outer loop
      vertex 3.50523 1.92701 0
      vertex 3.61931 1.70312 3
      vertex 3.61931 1.70312 0
    endloop
  endfacet
  facet normal 0.860741 0.509043 0
    outer loop
      vertex 3.50523 1.92701 3
      vertex 3.37731 2.14331 0
      vertex 3.37731 2.14331 3
    endloop
  endfacet
  facet normal 0.860741 0.509043 0
    outer loop
      vertex 3.37731 2.14331 0
      vertex 3.50523 1.92701 3
      vertex 3.50523 1.92701 0
    endloop
  endfacet
  facet normal 0.827083 0.56208 0
    outer loop
      vertex 3.37731 2.14331 3
      vertex 3.23607 2.35114 0
      vertex 3.23607 2.35114 3
    endloop
  endfacet
  facet normal 0.827083 0.56208 0
    outer loop
      vertex 3.23607 2.35114 0
      vertex 3.37731 2.14331 3
      vertex 3.37731 2.14331 0
    endloop
  endfacet
  facet normal 0.790153 0.61291 0
    outer loop
      vertex 3.23607 2.35114 3
      vertex 3.08205 2.5497 0
      vertex 3.08205 2.5497 3
    endloop
  endfacet
  facet normal 0.790153 0.61291 0
    outer loop
      vertex 3.08205 2.5497 0
      vertex 3.23607 2.35114 3
      vertex 3.23607 2.35114 0
    endloop
  endfacet
  facet normal 0.750104 0.66132 0
    outer loop
      vertex 3.08205 2.5497 3
      vertex 2.91587 2.73819 0
      vertex 2.91587 2.73819 3
    endloop
  endfacet
  facet normal 0.750104 0.66132 0
    outer loop
      vertex 2.91587 2.73819 0
      vertex 3.08205 2.5497 3
      vertex 3.08205 2.5497 0
    endloop
  endfacet
  facet normal 0.707107 0.707107 0
    outer loop
      vertex 2.91587 2.73819 3
      vertex 2.73819 2.91587 0
      vertex 2.73819 2.91587 3
    endloop
  endfacet
  facet normal 0.707107 0.707107 0
    outer loop
      vertex 2.73819 2.91587 0
      vertex 2.91587 2.73819 3
      vertex 2.91587 2.73819 0
    endloop
  endfacet
  facet normal 0.66132 0.750104 -0
    outer loop
      vertex 2.73819 2.91587 0
      vertex 2.5497 3.08205 3
      vertex 2.73819 2.91587 3
    endloop
  endfacet
  facet normal 0.66132 0.750104 0
    outer loop
      vertex 2.5497 3.08205 3
      vertex 2.73819 2.91587 0
      vertex 2.5497 3.08205 0
    endloop
  endfacet
  facet normal 0.61291 0.790153 -0
    outer loop
      vertex 2.5497 3.08205 0
      vertex 2.35114 3.23607 3
      vertex 2.5497 3.08205 3
    endloop
  endfacet
  facet normal 0.61291 0.790153 0
    outer loop
      vertex 2.35114 3.23607 3
      vertex 2.5497 3.08205 0
      vertex 2.35114 3.23607 0
    endloop
  endfacet
  facet normal 0.56208 0.827083 -0
    outer loop
      vertex 2.35114 3.23607 0
      vertex 2.14331 3.37731 3
      vertex 2.35114 3.23607 3
    endloop
  endfacet
  facet normal 0.56208 0.827083 0
    outer loop
      vertex 2.14331 3.37731 3
      vertex 2.35114 3.23607 0
      vertex 2.14331 3.37731 0
    endloop
  endfacet
  facet normal 0.509043 0.860741 -0
    outer loop
      vertex 2.14331 3.37731 0
      vertex 1.92701 3.50523 3
      vertex 2.14331 3.37731 3
    endloop
  endfacet
  facet normal 0.509043 0.860741 0
    outer loop
      vertex 1.92701 3.50523 3
      vertex 2.14331 3.37731 0
      vertex 1.92701 3.50523 0
    endloop
  endfacet
  facet normal 0.453998 0.891003 -0
    outer loop
      vertex 1.92701 3.50523 0
      vertex 1.70312 3.61931 3
      vertex 1.92701 3.50523 3
    endloop
  endfacet
  facet normal 0.453998 0.891003 0
    outer loop
      vertex 1.70312 3.61931 3
      vertex 1.92701 3.50523 0
      vertex 1.70312 3.61931 0
    endloop
  endfacet
  facet normal 0.397154 0.917752 -0
    outer loop
      vertex 1.70312 3.61931 0
      vertex 1.4725 3.71911 3
      vertex 1.70312 3.61931 3
    endloop
  endfacet
  facet normal 0.397154 0.917752 0
    outer loop
      vertex 1.4725 3.71911 3
      vertex 1.70312 3.61931 0
      vertex 1.4725 3.71911 0
    endloop
  endfacet
  facet normal 0.338738 0.940881 -0
    outer loop
      vertex 1.4725 3.71911 0
      vertex 1.23607 3.80423 3
      vertex 1.4725 3.71911 3
    endloop
  endfacet
  facet normal 0.338738 0.940881 0
    outer loop
      vertex 1.23607 3.80423 3
      vertex 1.4725 3.71911 0
      vertex 1.23607 3.80423 0
    endloop
  endfacet
  facet normal 0.278965 0.960301 -0
    outer loop
      vertex 1.23607 3.80423 0
      vertex 0.99476 3.87433 3
      vertex 1.23607 3.80423 3
    endloop
  endfacet
  facet normal 0.278965 0.960301 0
    outer loop
      vertex 0.99476 3.87433 3
      vertex 1.23607 3.80423 0
      vertex 0.99476 3.87433 0
    endloop
  endfacet
  facet normal 0.218156 0.975914 -0
    outer loop
      vertex 0.99476 3.87433 0
      vertex 0.749525 3.92915 3
      vertex 0.99476 3.87433 3
    endloop
  endfacet
  facet normal 0.218156 0.975914 0
    outer loop
      vertex 0.749525 3.92915 3
      vertex 0.99476 3.87433 0
      vertex 0.749525 3.92915 0
    endloop
  endfacet
  facet normal 0.156435 0.987688 -0
    outer loop
      vertex 0.749525 3.92915 0
      vertex 0.501333 3.96846 3
      vertex 0.749525 3.92915 3
    endloop
  endfacet
  facet normal 0.156435 0.987688 0
    outer loop
      vertex 0.501333 3.96846 3
      vertex 0.749525 3.92915 0
      vertex 0.501333 3.96846 0
    endloop
  endfacet
  facet normal 0.0941157 0.995561 -0
    outer loop
      vertex 0.501333 3.96846 0
      vertex 0.251162 3.99211 3
      vertex 0.501333 3.96846 3
    endloop
  endfacet
  facet normal 0.0941157 0.995561 0
    outer loop
      vertex 0.251162 3.99211 3
      vertex 0.501333 3.96846 0
      vertex 0.251162 3.99211 0
    endloop
  endfacet
  facet normal 0.0313985 0.999507 -0
    outer loop
      vertex 0.251162 3.99211 0
      vertex 0 4 3
      vertex 0.251162 3.99211 3
    endloop
  endfacet
  facet normal 0.0313985 0.999507 0
    outer loop
      vertex 0 4 3
      vertex 0.251162 3.99211 0
      vertex 0 4 0
    endloop
  endfacet
  facet normal -0.0313985 0.999507 0
    outer loop
      vertex 0 4 0
      vertex -0.251162 3.99211 3
      vertex 0 4 3
    endloop
  endfacet
  facet normal -0.0313985 0.999507 0
    outer loop
      vertex -0.251162 3.99211 3
      vertex 0 4 0
      vertex -0.251162 3.99211 0
    endloop
  endfacet
  facet normal -0.0941157 0.995561 0
    outer loop
      vertex -0.251162 3.99211 0
      vertex -0.501333 3.96846 3
      vertex -0.251162 3.99211 3
    endloop
  endfacet
  facet normal -0.0941157 0.995561 0
    outer loop
      vertex -0.501333 3.96846 3
      vertex -0.251162 3.99211 0
      vertex -0.501333 3.96846 0
    endloop
  endfacet
  facet normal -0.156435 0.987688 0
    outer loop
      vertex -0.501333 3.96846 0
      vertex -0.749525 3.92915 3
      vertex -0.501333 3.96846 3
    endloop
  endfacet
  facet normal -0.156435 0.987688 0
    outer loop
      vertex -0.749525 3.92915 3
      vertex -0.501333 3.96846 0
      vertex -0.749525 3.92915 0
    endloop
  endfacet
  facet normal -0.218156 0.975914 0
    outer loop
      vertex -0.749525 3.92915 0
      vertex -0.99476 3.87433 3
      vertex -0.749525 3.92915 3
    endloop
  endfacet
  facet normal -0.218156 0.975914 0
    outer loop
      vertex -0.99476 3.87433 3
      vertex -0.749525 3.92915 0
      vertex -0.99476 3.87433 0
    endloop
  endfacet
  facet normal -0.278965 0.960301 0
    outer loop
      vertex -0.99476 3.87433 0
      vertex -1.23607 3.80423 3
      vertex -0.99476 3.87433 3
    endloop
  endfacet
  facet normal -0.278965 0.960301 0
    outer loop
      vertex -1.23607 3.80423 3
      vertex -0.99476 3.87433 0
      vertex -1.23607 3.80423 0
    endloop
  endfacet
  facet normal -0.338738 0.940881 0
    outer loop
      vertex -1.23607 3.80423 0
      vertex -1.4725 3.71911 3
      vertex -1.23607 3.80423 3
    endloop
  endfacet
  facet normal -0.338738 0.940881 0
    outer loop
      vertex -1.4725 3.71911 3
      vertex -1.23607 3.80423 0
      vertex -1.4725 3.71911 0
    endloop
  endfacet
  facet normal -0.397154 0.917752 0
    outer loop
      vertex -1.4725 3.71911 0
      vertex -1.70312 3.61931 3
      vertex -1.4725 3.71911 3
    endloop
  endfacet
  facet normal -0.397154 0.917752 0
    outer loop
      vertex -1.70312 3.61931 3
      vertex -1.4725 3.71911 0
      vertex -1.70312 3.61931 0
    endloop
  endfacet
  facet normal -0.453998 0.891003 0
    outer loop
      vertex -1.70312 3.61931 0
      vertex -1.92701 3.50523 3
      vertex -1.70312 3.61931 3
    endloop
  endfacet
  facet normal -0.453998 0.891003 0
    outer loop
      vertex -1.92701 3.50523 3
      vertex -1.70312 3.61931 0
      vertex -1.92701 3.50523 0
    endloop
  endfacet
  facet normal -0.509043 0.860741 0
    outer loop
      vertex -1.92701 3.50523 0
      vertex -2.14331 3.37731 3
      vertex -1.92701 3.50523 3
    endloop
  endfacet
  facet normal -0.509043 0.860741 0
    outer loop
      vertex -2.14331 3.37731 3
      vertex -1.92701 3.50523 0
      vertex -2.14331 3.37731 0
    endloop
  endfacet
  facet normal -0.56208 0.827083 0
    outer loop
      vertex -2.14331 3.37731 0
      vertex -2.35114 3.23607 3
      vertex -2.14331 3.37731 3
    endloop
  endfacet
  facet normal -0.56208 0.827083 0
    outer loop
      vertex -2.35114 3.23607 3
      vertex -2.14331 3.37731 0
      vertex -2.35114 3.23607 0
    endloop
  endfacet
  facet normal -0.61291 0.790153 0
    outer loop
      vertex -2.35114 3.23607 0
      vertex -2.5497 3.08205 3
      vertex -2.35114 3.23607 3
    endloop
  endfacet
  facet normal -0.61291 0.790153 0
    outer loop
      vertex -2.5497 3.08205 3
      vertex -2.35114 3.23607 0
      vertex -2.5497 3.08205 0
    endloop
  endfacet
  facet normal -0.66132 0.750104 0
    outer loop
      vertex -2.5497 3.08205 0
      vertex -2.73819 2.91587 3
      vertex -2.5497 3.08205 3
    endloop
  endfacet
  facet normal -0.66132 0.750104 0
    outer loop
      vertex -2.73819 2.91587 3
      vertex -2.5497 3.08205 0
      vertex -2.73819 2.91587 0
    endloop
  endfacet
  facet normal -0.707107 0.707107 0
    outer loop
      vertex -2.91587 2.73819 0
      vertex -2.73819 2.91587 3
      vertex -2.73819 2.91587 0
    endloop
  endfacet
  facet normal -0.707107 0.707107 0
    outer loop
      vertex -2.73819 2.91587 3
      vertex -2.91587 2.73819 0
      vertex -2.91587 2.73819 3
    endloop
  endfacet
  facet normal -0.750104 0.66132 0
    outer loop
      vertex -3.08205 2.5497 0
      vertex -2.91587 2.73819 3
      vertex -2.91587 2.73819 0
    endloop
  endfacet
  facet normal -0.750104 0.66132 0
    outer loop
      vertex -2.91587 2.73819 3
      vertex -3.08205 2.5497 0
      vertex -3.08205 2.5497 3
    endloop
  endfacet
  facet normal -0.790153 0.61291 0
    outer loop
      vertex -3.23607 2.35114 0
      vertex -3.08205 2.5497 3
      vertex -3.08205 2.5497 0
    endloop
  endfacet
  facet normal -0.790153 0.61291 0
    outer loop
      vertex -3.08205 2.5497 3
      vertex -3.23607 2.35114 0
      vertex -3.23607 2.35114 3
    endloop
  endfacet
  facet normal -0.827083 0.56208 0
    outer loop
      vertex -3.37731 2.14331 0
      vertex -3.23607 2.35114 3
      vertex -3.23607 2.35114 0
    endloop
  endfacet
  facet normal -0.827083 0.56208 0
    outer loop
      vertex -3.23607 2.35114 3
      vertex -3.37731 2.14331 0
      vertex -3.37731 2.14331 3
    endloop
  endfacet
  facet normal -0.860741 0.509043 0
    outer loop
      vertex -3.50523 1.92701 0
      vertex -3.37731 2.14331 3
      vertex -3.37731 2.14331 0
    endloop
  endfacet
  facet normal -0.860741 0.509043 0
    outer loop
      vertex -3.37731 2.14331 3
      vertex -3.50523 1.92701 0
      vertex -3.50523 1.92701 3
    endloop
  endfacet
  facet normal -0.891003 0.453998 0
    outer loop
      vertex -3.61931 1.70312 0
      vertex -3.50523 1.92701 3
      vertex -3.50523 1.92701 0
    endloop
  endfacet
  facet normal -0.891003 0.453998 0
    outer loop
      vertex -3.50523 1.92701 3
      vertex -3.61931 1.70312 0
      vertex -3.61931 1.70312 3
    endloop
  endfacet
  facet normal -0.917752 0.397154 0
    outer loop
      vertex -3.71911 1.4725 0
      vertex -3.61931 1.70312 3
      vertex -3.61931 1.70312 0
    endloop
  endfacet
  facet normal -0.917752 0.397154 0
    outer loop
      vertex -3.61931 1.70312 3
      vertex -3.71911 1.4725 0
      vertex -3.71911 1.4725 3
    endloop
  endfacet
  facet normal -0.940881 0.338738 0
    outer loop
      vertex -3.80423 1.23607 0
      vertex -3.71911 1.4725 3
      vertex -3.71911 1.4725 0
    endloop
  endfacet
  facet normal -0.940881 0.338738 0
    outer loop
      vertex -3.71911 1.4725 3
      vertex -3.80423 1.23607 0
      vertex -3.80423 1.23607 3
    endloop
  endfacet
  facet normal -0.960301 0.278965 0
    outer loop
      vertex -3.87433 0.99476 0
      vertex -3.80423 1.23607 3
      vertex -3.80423 1.23607 0
    endloop
  endfacet
  facet normal -0.960301 0.278965 0
    outer loop
      vertex -3.80423 1.23607 3
      vertex -3.87433 0.99476 0
      vertex -3.87433 0.99476 3
    endloop
  endfacet
  facet normal -0.975914 0.218156 0
    outer loop
      vertex -3.92915 0.749525 0
      vertex -3.87433 0.99476 3
      vertex -3.87433 0.99476 0
    endloop
  endfacet
  facet normal -0.975914 0.218156 0
    outer loop
      vertex -3.87433 0.99476 3
      vertex -3.92915 0.749525 0
      vertex -3.92915 0.749525 3
    endloop
  endfacet
  facet normal -0.987688 0.156435 0
    outer loop
      vertex -3.96846 0.501333 0
      vertex -3.92915 0.749525 3
      vertex -3.92915 0.749525 0
    endloop
  endfacet
  facet normal -0.987688 0.156435 0
    outer loop
      vertex -3.92915 0.749525 3
      vertex -3.96846 0.501333 0
      vertex -3.96846 0.501333 3
    endloop
  endfacet
  facet normal -0.995561 0.0941157 0
    outer loop
      vertex -3.99211 0.251162 0
      vertex -3.96846 0.501333 3
      vertex -3.96846 0.501333 0
    endloop
  endfacet
  facet normal -0.995561 0.0941157 0
    outer loop
      vertex -3.96846 0.501333 3
      vertex -3.99211 0.251162 0
      vertex -3.99211 0.251162 3
    endloop
  endfacet
  facet normal -0.999507 0.0313985 0
    outer loop
      vertex -4 -0 0
      vertex -3.99211 0.251162 3
      vertex -3.99211 0.251162 0
    endloop
  endfacet
  facet normal -0.999507 0.0313985 0
    outer loop
      vertex -3.99211 0.251162 3
      vertex -4 -0 0
      vertex -4 -0 3
    endloop
  endfacet
  facet normal -0.999507 -0.0313985 0
    outer loop
      vertex -3.99211 -0.251162 0
      vertex -4 -0 3
      vertex -4 -0 0
    endloop
  endfacet
  facet normal -0.999507 -0.0313985 0
    outer loop
      vertex -4 -0 3
      vertex -3.99211 -0.251162 0
      vertex -3.99211 -0.251162 3
    endloop
  endfacet
  facet normal -0.995561 -0.0941157 0
    outer loop
      vertex -3.96846 -0.501333 0
      vertex -3.99211 -0.251162 3
      vertex -3.99211 -0.251162 0
    endloop
  endfacet
  facet normal -0.995561 -0.0941157 0
    outer loop
      vertex -3.99211 -0.251162 3
      vertex -3.96846 -0.501333 0
      vertex -3.96846 -0.501333 3
    endloop
  endfacet
  facet normal -0.987688 -0.156435 0
    outer loop
      vertex -3.92915 -0.749525 0
      vertex -3.96846 -0.501333 3
      vertex -3.96846 -0.501333 0
    endloop
  endfacet
  facet normal -0.987688 -0.156435 0
    outer loop
      vertex -3.96846 -0.501333 3
      vertex -3.92915 -0.749525 0
      vertex -3.92915 -0.749525 3
    endloop
  endfacet
  facet normal -0.975914 -0.218156 0
    outer loop
      vertex -3.87433 -0.99476 0
      vertex -3.92915 -0.749525 3
      vertex -3.92915 -0.749525 0
    endloop
  endfacet
  facet normal -0.975914 -0.218156 0
    outer loop
      vertex -3.92915 -0.749525 3
      vertex -3.87433 -0.99476 0
      vertex -3.87433 -0.99476 3
    endloop
  endfacet
  facet normal -0.960301 -0.278965 0
    outer loop
      vertex -3.80423 -1.23607 0
      vertex -3.87433 -0.99476 3
      vertex -3.87433 -0.99476 0
    endloop
  endfacet
  facet normal -0.960301 -0.278965 0
    outer loop
      vertex -3.87433 -0.99476 3
      vertex -3.80423 -1.23607 0
      vertex -3.80423 -1.23607 3
    endloop
  endfacet
  facet normal -0.940881 -0.338738 0
    outer loop
      vertex -3.71911 -1.4725 0
      vertex -3.80423 -1.23607 3
      vertex -3.80423 -1.23607 0
    endloop
  endfacet
  facet normal -0.940881 -0.338738 0
    outer loop
      vertex -3.80423 -1.23607 3
      vertex -3.71911 -1.4725 0
      vertex -3.71911 -1.4725 3
    endloop
  endfacet
  facet normal -0.917752 -0.397154 0
    outer loop
      vertex -3.61931 -1.70312 0
      vertex -3.71911 -1.4725 3
      vertex -3.71911 -1.4725 0
    endloop
  endfacet
  facet normal -0.917752 -0.397154 0
    outer loop
      vertex -3.71911 -1.4725 3
      vertex -3.61931 -1.70312 0
      vertex -3.61931 -1.70312 3
    endloop
  endfacet
  facet normal -0.891003 -0.453998 0
    outer loop
      vertex -3.50523 -1.92701 0
      vertex -3.61931 -1.70312 3
      vertex -3.61931 -1.70312 0
    endloop
  endfacet
  facet normal -0.891003 -0.453998 0
    outer loop
      vertex -3.61931 -1.70312 3
      vertex -3.50523 -1.92701 0
      vertex -3.50523 -1.92701 3
    endloop
  endfacet
  facet normal -0.860741 -0.509043 0
    outer loop
      vertex -3.37731 -2.14331 0
      vertex -3.50523 -1.92701 3
      vertex -3.50523 -1.92701 0
    endloop
  endfacet
  facet normal -0.860741 -0.509043 0
    outer loop
      vertex -3.50523 -1.92701 3
      vertex -3.37731 -2.14331 0
      vertex -3.37731 -2.14331 3
    endloop
  endfacet
  facet normal -0.827083 -0.56208 0
    outer loop
      vertex -3.23607 -2.35114 0
      vertex -3.37731 -2.14331 3
      vertex -3.37731 -2.14331 0
    endloop
  endfacet
  facet normal -0.827083 -0.56208 0
    outer loop
      vertex -3.37731 -2.14331 3
      vertex -3.23607 -2.35114 0
      vertex -3.23607 -2.35114 3
    endloop
  endfacet
  facet normal -0.790153 -0.61291 0
    outer loop
      vertex -3.08205 -2.5497 0
      vertex -3.23607 -2.35114 3
      vertex -3.23607 -2.35114 0
    endloop
  endfacet
  facet normal -0.790153 -0.61291 0
    outer loop
      vertex -3.23607 -2.35114 3
      vertex -3.08205 -2.5497 0
      vertex -3.08205 -2.5497 3
    endloop
  endfacet
  facet normal -0.750104 -0.66132 0
    outer loop
      vertex -2.91587 -2.73819 0
      vertex -3.08205 -2.5497 3
      vertex -3.08205 -2.5497 0
    endloop
  endfacet
  facet normal -0.750104 -0.66132 0
    outer loop
      vertex -3.08205 -2.5497 3
      vertex -2.91587 -2.73819 0
      vertex -2.91587 -2.73819 3
    endloop
  endfacet
  facet normal -0.707107 -0.707107 0
    outer loop
      vertex -2.73819 -2.91587 0
      vertex -2.91587 -2.73819 3
      vertex -2.91587 -2.73819 0
    endloop
  endfacet
  facet normal -0.707107 -0.707107 0
    outer loop
      vertex -2.91587 -2.73819 3
      vertex -2.73819 -2.91587 0
      vertex -2.73819 -2.91587 3
    endloop
  endfacet
  facet normal -0.66132 -0.750104 0
    outer loop
      vertex -2.73819 -2.91587 0
      vertex -2.5497 -3.08205 3
      vertex -2.73819 -2.91587 3
    endloop
  endfacet
  facet normal -0.66132 -0.750104 -0
    outer loop
      vertex -2.5497 -3.08205 3
      vertex -2.73819 -2.91587 0
      vertex -2.5497 -3.08205 0
    endloop
  endfacet
  facet normal -0.61291 -0.790153 0
    outer loop
      vertex -2.5497 -3.08205 0
      vertex -2.35114 -3.23607 3
      vertex -2.5497 -3.08205 3
    endloop
  endfacet
  facet normal -0.61291 -0.790153 -0
    outer loop
      vertex -2.35114 -3.23607 3
      vertex -2.5497 -3.08205 0
      vertex -2.35114 -3.23607 0
    endloop
  endfacet
  facet normal -0.56208 -0.827083 0
    outer loop
      vertex -2.35114 -3.23607 0
      vertex -2.14331 -3.37731 3
      vertex -2.35114 -3.23607 3
    endloop
  endfacet
  facet normal -0.56208 -0.827083 -0
    outer loop
      vertex -2.14331 -3.37731 3
      vertex -2.35114 -3.23607 0
      vertex -2.14331 -3.37731 0
    endloop
  endfacet
  facet normal -0.509043 -0.860741 0
    outer loop
      vertex -2.14331 -3.37731 0
      vertex -1.92701 -3.50523 3
      vertex -2.14331 -3.37731 3
    endloop
  endfacet
  facet normal -0.509043 -0.860741 -0
    outer loop
      vertex -1.92701 -3.50523 3
      vertex -2.14331 -3.37731 0
      vertex -1.92701 -3.50523 0
    endloop
  endfacet
  facet normal -0.453998 -0.891003 0
    outer loop
      vertex -1.92701 -3.50523 0
      vertex -1.70312 -3.61931 3
      vertex -1.92701 -3.50523 3
    endloop
  endfacet
  facet normal -0.453998 -0.891003 -0
    outer loop
      vertex -1.70312 -3.61931 3
      vertex -1.92701 -3.50523 0
      vertex -1.70312 -3.61931 0
    endloop
  endfacet
  facet normal -0.397154 -0.917752 0
    outer loop
      vertex -1.70312 -3.61931 0
      vertex -1.4725 -3.71911 3
      vertex -1.70312 -3.61931 3
    endloop
  endfacet
  facet normal -0.397154 -0.917752 -0
    outer loop
      vertex -1.4725 -3.71911 3
      vertex -1.70312 -3.61931 0
      vertex -1.4725 -3.71911 0
    endloop
  endfacet
  facet normal -0.338738 -0.940881 0
    outer loop
      vertex -1.4725 -3.71911 0
      vertex -1.23607 -3.80423 3
      vertex -1.4725 -3.71911 3
    endloop
  endfacet
  facet normal -0.338738 -0.940881 -0
    outer loop
      vertex -1.23607 -3.80423 3
      vertex -1.4725 -3.71911 0
      vertex -1.23607 -3.80423 0
    endloop
  endfacet
  facet normal -0.278965 -0.960301 0
    outer loop
      vertex -1.23607 -3.80423 0
      vertex -0.99476 -3.87433 3
      vertex -1.23607 -3.80423 3
    endloop
  endfacet
  facet normal -0.278965 -0.960301 -0
    outer loop
      vertex -0.99476 -3.87433 3
      vertex -1.23607 -3.80423 0
      vertex -0.99476 -3.87433 0
    endloop
  endfacet
  facet normal -0.218156 -0.975914 0
    outer loop
      vertex -0.99476 -3.87433 0
      vertex -0.749525 -3.92915 3
      vertex -0.99476 -3.87433 3
    endloop
  endfacet
  facet normal -0.218156 -0.975914 -0
    outer loop
      vertex -0.749525 -3.92915 3
      vertex -0.99476 -3.87433 0
      vertex -0.749525 -3.92915 0
    endloop
  endfacet
  facet normal -0.156435 -0.987688 0
    outer loop
      vertex -0.749525 -3.92915 0
      vertex -0.501333 -3.96846 3
      vertex -0.749525 -3.92915 3
    endloop
  endfacet
  facet normal -0.156435 -0.987688 -0
    outer loop
      vertex -0.501333 -3.96846 3
      vertex -0.749525 -3.92915 0
      vertex -0.501333 -3.96846 0
    endloop
  endfacet
  facet normal -0.0941157 -0.995561 0
    outer loop
      vertex -0.501333 -3.96846 0
      vertex -0.251162 -3.99211 3
      vertex -0.501333 -3.96846 3
    endloop
  endfacet
  facet normal -0.0941157 -0.995561 -0
    outer loop
      vertex -0.251162 -3.99211 3
      vertex -0.501333 -3.96846 0
      vertex -0.251162 -3.99211 0
    endloop
  endfacet
  facet normal -0.0313985 -0.999507 0
    outer loop
      vertex -0.251162 -3.99211 0
      vertex -0 -4 3
      vertex -0.251162 -3.99211 3
    endloop
  endfacet
  facet normal -0.0313985 -0.999507 -0
    outer loop
      vertex -0 -4 3
      vertex -0.251162 -3.99211 0
      vertex -0 -4 0
    endloop
  endfacet
  facet normal 0.0313985 -0.999507 0
    outer loop
      vertex -0 -4 0
      vertex 0.251162 -3.99211 3
      vertex -0 -4 3
    endloop
  endfacet
  facet normal 0.0313985 -0.999507 0
    outer loop
      vertex 0.251162 -3.99211 3
      vertex -0 -4 0
      vertex 0.251162 -3.99211 0
    endloop
  endfacet
  facet normal 0.0941157 -0.995561 0
    outer loop
      vertex 0.251162 -3.99211 0
      vertex 0.501333 -3.96846 3
      vertex 0.251162 -3.99211 3
    endloop
  endfacet
  facet normal 0.0941157 -0.995561 0
    outer loop
      vertex 0.501333 -3.96846 3
      vertex 0.251162 -3.99211 0
      vertex 0.501333 -3.96846 0
    endloop
  endfacet
  facet normal 0.156435 -0.987688 0
    outer loop
      vertex 0.501333 -3.96846 0
      vertex 0.749525 -3.92915 3
      vertex 0.501333 -3.96846 3
    endloop
  endfacet
  facet normal 0.156435 -0.987688 0
    outer loop
      vertex 0.749525 -3.92915 3
      vertex 0.501333 -3.96846 0
      vertex 0.749525 -3.92915 0
    endloop
  endfacet
  facet normal 0.218156 -0.975914 0
    outer loop
      vertex 0.749525 -3.92915 0
      vertex 0.99476 -3.87433 3
      vertex 0.749525 -3.92915 3
    endloop
  endfacet
  facet normal 0.218156 -0.975914 0
    outer loop
      vertex 0.99476 -3.87433 3
      vertex 0.749525 -3.92915 0
      vertex 0.99476 -3.87433 0
    endloop
  endfacet
  facet normal 0.278965 -0.960301 0
    outer loop
      vertex 0.99476 -3.87433 0
      vertex 1.23607 -3.80423 3
      vertex 0.99476 -3.87433 3
    endloop
  endfacet
  facet normal 0.278965 -0.960301 0
    outer loop
      vertex 1.23607 -3.80423 3
      vertex 0.99476 -3.87433 0
      vertex 1.23607 -3.80423 0
    endloop
  endfacet
  facet normal 0.338738 -0.940881 0
    outer loop
      vertex 1.23607 -3.80423 0
      vertex 1.4725 -3.71911 3
      vertex 1.23607 -3.80423 3
    endloop
  endfacet
  facet normal 0.338738 -0.940881 0
    outer loop
      vertex 1.4725 -3.71911 3
      vertex 1.23607 -3.80423 0
      vertex 1.4725 -3.71911 0
    endloop
  endfacet
  facet normal 0.397154 -0.917752 0
    outer loop
      vertex 1.4725 -3.71911 0
      vertex 1.70312 -3.61931 3
      vertex 1.4725 -3.71911 3
    endloop
  endfacet
  facet normal 0.397154 -0.917752 0
    outer loop
      vertex 1.70312 -3.61931 3
      vertex 1.4725 -3.71911 0
      vertex 1.70312 -3.61931 0
    endloop
  endfacet
  facet normal 0.453998 -0.891003 0
    outer loop
      vertex 1.70312 -3.61931 0
      vertex 1.92701 -3.50523 3
      vertex 1.70312 -3.61931 3
    endloop
  endfacet
  facet normal 0.453998 -0.891003 0
    outer loop
      vertex 1.92701 -3.50523 3
      vertex 1.70312 -3.61931 0
      vertex 1.92701 -3.50523 0
    endloop
  endfacet
  facet normal 0.509043 -0.860741 0
    outer loop
      vertex 1.92701 -3.50523 0
      vertex 2.14331 -3.37731 3
      vertex 1.92701 -3.50523 3
    endloop
  endfacet
  facet normal 0.509043 -0.860741 0
    outer loop
      vertex 2.14331 -3.37731 3
      vertex 1.92701 -3.50523 0
      vertex 2.14331 -3.37731 0
    endloop
  endfacet
  facet normal 0.56208 -0.827083 0
    outer loop
      vertex 2.14331 -3.37731 0
      vertex 2.35114 -3.23607 3
      vertex 2.14331 -3.37731 3
    endloop
  endfacet
  facet normal 0.56208 -0.827083 0
    outer loop
      vertex 2.35114 -3.23607 3
      vertex 2.14331 -3.37731 0
      vertex 2.35114 -3.23607 0
    endloop
  endfacet
  facet normal 0.61291 -0.790153 0
    outer loop
      vertex 2.35114 -3.23607 0
      vertex 2.5497 -3.08205 3
      vertex 2.35114 -3.23607 3
    endloop
  endfacet
  facet normal 0.61291 -0.790153 0
    outer loop
      vertex 2.5497 -3.08205 3
      vertex 2.35114 -3.23607 0
      vertex 2.5497 -3.08205 0
    endloop
  endfacet
  facet normal 0.66132 -0.750104 0
    outer loop
      vertex 2.5497 -3.08205 0
      vertex 2.73819 -2.91587 3
      vertex 2.5497 -3.08205 3
    endloop
  endfacet
  facet normal 0.66132 -0.750104 0
    outer loop
      vertex 2.73819 -2.91587 3
      vertex 2.5497 -3.08205 0
      vertex 2.73819 -2.91587 0
    endloop
  endfacet
  facet normal 0.707107 -0.707107 0
    outer loop
      vertex 2.73819 -2.91587 3
      vertex 2.91587 -2.73819 0
      vertex 2.91587 -2.73819 3
    endloop
  endfacet
  facet normal 0.707107 -0.707107 0
    outer loop
      vertex 2.91587 -2.73819 0
      vertex 2.73819 -2.91587 3
      vertex 2.73819 -2.91587 0
    endloop
  endfacet
  facet normal 0.750104 -0.66132 0
    outer loop
      vertex 2.91587 -2.73819 3
      vertex 3.08205 -2.5497 0
      vertex 3.08205 -2.5497 3
    endloop
  endfacet
  facet normal 0.750104 -0.66132 0
    outer loop
      vertex 3.08205 -2.5497 0
      vertex 2.91587 -2.73819 3
      vertex 2.91587 -2.73819 0
    endloop
  endfacet
  facet normal 0.790153 -0.61291 0
    outer loop
      vertex 3.08205 -2.5497 3
      vertex 3.23607 -2.35114 0
      vertex 3.23607 -2.35114 3
    endloop
  endfacet
  facet normal 0.790153 -0.61291 0
    outer loop
      vertex 3.23607 -2.35114 0
      vertex 3.08205 -2.5497 3
      vertex 3.08205 -2.5497 0
    endloop
  endfacet
  facet normal 0.827083 -0.56208 0
    outer loop
      vertex 3.23607 -2.35114 3
      vertex 3.37731 -2.14331 0
      vertex 3.37731 -2.14331 3
    endloop
  endfacet
  facet normal 0.827083 -0.56208 0
    outer loop
      vertex 3.37731 -2.14331 0
      vertex 3.23607 -2.35114 3
      vertex 3.23607 -2.35114 0
    endloop
  endfacet
  facet normal 0.860741 -0.509043 0
    outer loop
      vertex 3.37731 -2.14331 3
      vertex 3.50523 -1.92701 0
      vertex 3.50523 -1.92701 3
    endloop
  endfacet
  facet normal 0.860741 -0.509043 0
    outer loop
      vertex 3.50523 -1.92701 0
      vertex 3.37731 -2.14331 3
      vertex 3.37731 -2.14331 0
    endloop
  endfacet
  facet normal 0.891003 -0.453998 0
    outer loop
      vertex 3.50523 -1.92701 3
      vertex 3.61931 -1.70312 0
      vertex 3.61931 -1.70312 3
    endloop
  endfacet
  facet normal 0.891003 -0.453998 0
    outer loop
      vertex 3.61931 -1.70312 0
      vertex 3.50523 -1.92701 3
      vertex 3.50523 -1.92701 0
    endloop
  endfacet
  facet normal 0.917752 -0.397154 0
    outer loop
      vertex 3.61931 -1.70312 3
      vertex 3.71911 -1.4725 0
      vertex 3.71911 -1.4725 3
    endloop
  endfacet
  facet normal 0.917752 -0.397154 0
    outer loop
      vertex 3.71911 -1.4725 0
      vertex 3.61931 -1.70312 3
      vertex 3.61931 -1.70312 0
    endloop
  endfacet
  facet normal 0.940881 -0.338738 0
    outer loop
      vertex 3.71911 -1.4725 3
      vertex 3.80423 -1.23607 0
      vertex 3.80423 -1.23607 3
    endloop
  endfacet
  facet normal 0.940881 -0.338738 0
    outer loop
      vertex 3.80423 -1.23607 0
      vertex 3.71911 -1.4725 3
      vertex 3.71911 -1.4725 0
    endloop
  endfacet
  facet normal 0.960301 -0.278965 0
    outer loop
      vertex 3.80423 -1.23607 3
      vertex 3.87433 -0.99476 0
      vertex 3.87433 -0.99476 3
    endloop
  endfacet
  facet normal 0.960301 -0.278965 0
    outer loop
      vertex 3.87433 -0.99476 0
      vertex 3.80423 -1.23607 3
      vertex 3.80423 -1.23607 0
    endloop
  endfacet
  facet normal 0.975914 -0.218156 0
    outer loop
      vertex 3.87433 -0.99476 3
      vertex 3.92915 -0.749525 0
      vertex 3.92915 -0.749525 3
    endloop
  endfacet
  facet normal 0.975914 -0.218156 0
    outer loop
      vertex 3.92915 -0.749525 0
      vertex 3.87433 -0.99476 3
      vertex 3.87433 -0.99476 0
    endloop
  endfacet
  facet normal 0.987688 -0.156435 0
    outer loop
      vertex 3.92915 -0.749525 3
      vertex 3.96846 -0.501333 0
      vertex 3.96846 -0.501333 3
    endloop
  endfacet
  facet normal 0.987688 -0.156435 0
    outer loop
      vertex 3.96846 -0.501333 0
      vertex 3.92915 -0.749525 3
      vertex 3.92915 -0.749525 0
    endloop
  endfacet
  facet normal 0.995561 -0.0941157 0
    outer loop
      vertex 3.96846 -0.501333 3
      vertex 3.99211 -0.251162 0
      vertex 3.99211 -0.251162 3
    endloop
  endfacet
  facet normal 0.995561 -0.0941157 0
    outer loop
      vertex 3.99211 -0.251162 0
      vertex 3.96846 -0.501333 3
      vertex 3.96846 -0.501333 0
    endloop
  endfacet
  facet normal 0.999507 -0.0313985 0
    outer loop
      vertex 3.99211 -0.251162 3
      vertex 4 0 0
      vertex 4 0 3
    endloop
  endfacet
  facet normal 0.999507 -0.0313985 0
    outer loop
      vertex 4 0 0
      vertex 3.99211 -0.251162 3
      vertex 3.99211 -0.251162 0
    endloop
  endfacet
  facet normal 0 0 -1
    outer loop
      vertex 3.99211 -0.251162 0
      vertex 3.99211 0.251162 0
      vertex 4 0 0
    endloop
  endfacet
  facet normal 0 0 -1
    outer loop
      vertex 3.96846 -0.501333 0
      vertex 3.99211 0.251162 0
      vertex 3.99211 -0.251162 0
    endloop
  endfacet
  facet normal 0 0 -1
    outer loop
      vertex 3.96846 -0.501333 0
      vertex 3.96846 0.501333 0
      vertex 3.99211 0.251162 0
    endloop
  endfacet
  facet normal 0 0 -1
    outer loop
      vertex 3.92915 -0.749525 0
      vertex 3.96846 0.501333 0
      vertex 3.96846 -0.501333 0
    endloop
  endfacet
  facet normal 0 0 -1
    outer loop
      vertex 3.92915 -0.749525 0
      vertex 3.92915 0.749525 0
      vertex 3.96846 0.501333 0
    endloop
  endfacet
  facet normal 0 0 -1
    outer loop
      vertex 3.87433 -0.99476 0
      vertex 3.92915 0.749525 0
      vertex 3.92915 -0.749525 0
    endloop
  endfacet
  facet normal 0 0 -1
    outer loop
      vertex 3.87433 -0.99476 0
      vertex 3.87433 0.99476 0
      vertex 3.92915 0.749525 0
    endloop
  endfacet
  facet normal 0 0 -1
    outer loop
      vertex 3.80423 -1.23607 0
      vertex 3.87433 0.99476 0
      vertex 3.87433 -0.99476 0
    endloop
  endfacet
  facet normal 0 0 -1
    outer loop
      vertex 3.80423 -1.23607 0
      vertex 3.80423 1.23607 0
      vertex 3.87433 0.99476 0
    endloop
  endfacet
  facet normal 0 0 -1
    outer loop
      vertex 3.71911 -1.4725 0
      vertex 3.80423 1.23607 0
      vertex 3.80423 -1.23607 0
    endloop
  endfacet
  facet normal 0 0 -1
    outer loop
      vertex 3.71911 -1.4725 0
      vertex 3.71911 1.4725 0
      vertex 3.80423 1.23607 0
    endloop
  endfacet
  facet normal 0 0 -1
    outer loop
      vertex 3.61931 -1.70312 0
      vertex 3.71911 1.4725 0
      vertex 3.71911 -1.4725 0
    endloop
  endfacet
  facet normal 0 0 -1
    outer loop
      vertex 3.61931 -1.70312 0
      vertex 3.61931 1.70312 0
      vertex 3.71911 1.4725 0
    endloop
  endfacet
  facet normal 0 0 -1
    outer loop
      vertex 3.50523 -1.92701 0
      vertex 3.61931 1.70312 0
      vertex 3.61931 -1.70312 0
    endloop
  endfacet
  facet normal 0 0 -1
    outer loop
      vertex 3.50523 -1.92701 0
      vertex 3.50523 1.92701 0
      vertex 3.61931 1.70312 0
    endloop
  endfacet
  facet normal 0 0 -1
    outer loop
      vertex 3.37731 -2.14331 0
      vertex 3.50523 1.92701 0
      vertex 3.50523 -1.92701 0
    endloop
  endfacet
  facet normal 0 0 -1
    outer loop
      vertex 3.37731 -2.14331 0
      vertex 3.37731 2.14331 0
      vertex 3.50523 1.92701 0
    endloop
  endfacet
  facet normal 0 0 -1
    outer loop
      vertex 3.23607 -2.35114 0
      vertex 3.37731 2.14331 0
      vertex 3.37731 -2.14331 0
    endloop
  endfacet
  facet normal 0 0 -1
    outer loop
      vertex 3.23607 -2.35114 0
      vertex 3.23607 2.35114 0
      vertex 3.37731 2.14331 0
    endloop
  endfacet
  facet normal 0 0 -1
    outer loop
      vertex 3.08205 -2.5497 0
      vertex 3.23607 2.35114 0
      vertex 3.23607 -2.35114 0
    endloop
  endfacet
  facet normal 0 0 -1
    outer loop
      vertex 3.08205 -2.5497 0
      vertex 3.08205 2.5497 0
      vertex 3.23607 2.35114 0
    endloop
  endfacet
  facet normal 0 0 -1
    outer loop
      vertex 2.91587 -2.73819 0
      vertex 3.08205 2.5497 0
      vertex 3.08205 -2.5497 0
    endloop
  endfacet
  facet normal 0 0 -1
    outer loop
      vertex 2.91587 -2.73819 0
      vertex 2.91587 2.73819 0
      vertex 3.08205 2.5497 0
    endloop
  endfacet
  facet normal 0 0 -1
    outer loop
      vertex 2.73819 -2.91587 0
      vertex 2.91587 2.73819 0
      vertex 2.91587 -2.73819 0
    endloop
  endfacet
  facet normal 0 0 -1
    outer loop
      vertex 2.73819 -2.91587 0
      vertex 2.73819 2.91587 0
      vertex 2.91587 2.73819 0
    endloop
  endfacet
  facet normal 0 0 -1
    outer loop
      vertex 2.5497 -3.08205 0
      vertex 2.73819 2.91587 0
      vertex 2.73819 -2.91587 0
    endloop
  endfacet
  facet normal 0 0 -1
    outer loop
      vertex 2.5497 -3.08205 0
      vertex 2.5497 3.08205 0
      vertex 2.73819 2.91587 0
    endloop
  endfacet
  facet normal 0 0 -1
    outer loop
      vertex 2.35114 -3.23607 0
      vertex 2.5497 3.08205 0
      vertex 2.5497 -3.08205 0
    endloop
  endfacet
  facet normal 0 0 -1
    outer loop
      vertex 2.35114 -3.23607 0
      vertex 2.35114 3.23607 0
      vertex 2.5497 3.08205 0
    endloop
  endfacet
  facet normal 0 0 -1
    outer loop
      vertex 2.14331 -3.37731 0
      vertex 2.35114 3.23607 0
      vertex 2.35114 -3.23607 0
    endloop
  endfacet
  facet normal 0 0 -1
    outer loop
      vertex 2.14331 -3.37731 0
      vertex 2.14331 3.37731 0
      vertex 2.35114 3.23607 0
    endloop
  endfacet
  facet normal 0 0 -1
    outer loop
      vertex 1.92701 -3.50523 0
      vertex 2.14331 3.37731 0
      vertex 2.14331 -3.37731 0
    endloop
  endfacet
  facet normal 0 0 -1
    outer loop
      vertex 1.92701 -3.50523 0
      vertex 1.92701 3.50523 0
      vertex 2.14331 3.37731 0
    endloop
  endfacet
  facet normal 0 0 -1
    outer loop
      vertex 1.70312 -3.61931 0
      vertex 1.92701 3.50523 0
      vertex 1.92701 -3.50523 0
    endloop
  endfacet
  facet normal 0 0 -1
    outer loop
      vertex 1.70312 -3.61931 0
      vertex 1.70312 3.61931 0
      vertex 1.92701 3.50523 0
    endloop
  endfacet
  facet normal 0 0 -1
    outer loop
      vertex 1.4725 -3.71911 0
      vertex 1.70312 3.61931 0
      vertex 1.70312 -3.61931 0
    endloop
  endfacet
  facet normal 0 0 -1
    outer loop
      vertex 1.4725 -3.71911 0
      vertex 1.4725 3.71911 0
      vertex 1.70312 3.61931 0
    endloop
  endfacet
  facet normal 0 0 -1
    outer loop
      vertex 1.23607 -3.80423 0
      vertex 1.4725 3.71911 0
      vertex 1.4725 -3.71911 0
    endloop
  endfacet
  facet normal 0 0 -1
    outer loop
      vertex 1.23607 -3.80423 0
      vertex 1.23607 3.80423 0
      vertex 1.4725 3.71911 0
    endloop
  endfacet
  facet normal 0 0 -1
    outer loop
      vertex 0.99476 -3.87433 0
      vertex 1.23607 3.80423 0
      vertex 1.23607 -3.80423 0
    endloop
  endfacet
  facet normal 0 0 -1
    outer loop
      vertex 0.99476 -3.87433 0
      vertex 0.99476 3.87433 0
      vertex 1.23607 3.80423 0
    endloop
  endfacet
  facet normal 0 0 -1
    outer loop
      vertex 0.749525 -3.92915 0
      vertex 0.99476 3.87433 0
      vertex 0.99476 -3.87433 0
    endloop
  endfacet
  facet normal 0 0 -1
    outer loop
      vertex 0.749525 -3.92915 0
      vertex 0.749525 3.92915 0
      vertex 0.99476 3.87433 0
    endloop
  endfacet
  facet normal 0 0 -1
    outer loop
      vertex 0.501333 -3.96846 0
      vertex 0.749525 3.92915 0
      vertex 0.749525 -3.92915 0
    endloop
  endfacet
  facet normal 0 0 -1
    outer loop
      vertex 0.501333 -3.96846 0
      vertex 0.501333 3.96846 0
      vertex 0.749525 3.92915 0
    endloop
  endfacet
  facet normal 0 0 -1
    outer loop
      vertex 0.251162 -3.99211 0
      vertex 0.501333 3.96846 0
      vertex 0.501333 -3.96846 0
    endloop
  endfacet
  facet normal 0 0 -1
    outer loop
      vertex 0.251162 -3.99211 0
      vertex 0.251162 3.99211 0
      vertex 0.501333 3.96846 0
    endloop
  endfacet
  facet normal 0 0 -1
    outer loop
      vertex -0 -4 0
      vertex 0.251162 3.99211 0
      vertex 0.251162 -3.99211 0
    endloop
  endfacet
  facet normal 0 0 -1
    outer loop
      vertex -0 -4 0
      vertex 0 4 0
      vertex 0.251162 3.99211 0
    endloop
  endfacet
  facet normal 0 0 -1
    outer loop
      vertex -0.251162 -3.99211 0
      vertex 0 4 0
      vertex -0 -4 0
    endloop
  endfacet
  facet normal 0 0 -1
    outer loop
      vertex -0.251162 -3.99211 0
      vertex -0.251162 3.99211 0
      vertex 0 4 0
    endloop
  endfacet
  facet normal 0 0 -1
    outer loop
      vertex -0.501333 -3.96846 0
      vertex -0.251162 3.99211 0
      vertex -0.251162 -3.99211 0
    endloop
  endfacet
  facet normal 0 0 -1
    outer loop
      vertex -0.501333 -3.96846 0
      vertex -0.501333 3.96846 0
      vertex -0.251162 3.99211 0
    endloop
  endfacet
  facet normal 0 0 -1
    outer loop
      vertex -0.749525 -3.92915 0
      vertex -0.501333 3.96846 0
      vertex -0.501333 -3.96846 0
    endloop
  endfacet
  facet normal 0 0 -1
    outer loop
      vertex -0.749525 -3.92915 0
      vertex -0.749525 3.92915 0
      vertex -0.501333 3.96846 0
    endloop
  endfacet
  facet normal 0 0 -1
    outer loop
      vertex -0.99476 -3.87433 0
      vertex -0.749525 3.92915 0
      vertex -0.749525 -3.92915 0
    endloop
  endfacet
  facet normal 0 0 -1
    outer loop
      vertex -0.99476 -3.87433 0
      vertex -0.99476 3.87433 0
      vertex -0.749525 3.92915 0
    endloop
  endfacet
  facet normal 0 0 -1
    outer loop
      vertex -1.23607 -3.80423 0
      vertex -0.99476 3.87433 0
      vertex -0.99476 -3.87433 0
    endloop
  endfacet
  facet normal 0 0 -1
    outer loop
      vertex -1.23607 -3.80423 0
      vertex -1.23607 3.80423 0
      vertex -0.99476 3.87433 0
    endloop
  endfacet
  facet normal 0 0 -1
    outer loop
      vertex -1.4725 -3.71911 0
      vertex -1.23607 3.80423 0
      vertex -1.23607 -3.80423 0
    endloop
  endfacet
  facet normal 0 0 -1
    outer loop
      vertex -1.4725 -3.71911 0
      vertex -1.4725 3.71911 0
      vertex -1.23607 3.80423 0
    endloop
  endfacet
  facet normal 0 0 -1
    outer loop
      vertex -1.70312 -3.61931 0
      vertex -1.4725 3.71911 0
      vertex -1.4725 -3.71911 0
    endloop
  endfacet
  facet normal 0 0 -1
    outer loop
      vertex -1.70312 -3.61931 0
      vertex -1.70312 3.61931 0
      vertex -1.4725 3.71911 0
    endloop
  endfacet
  facet normal 0 0 -1
    outer loop
      vertex -1.92701 -3.50523 0
      vertex -1.70312 3.61931 0
      vertex -1.70312 -3.61931 0
    endloop
  endfacet
  facet normal 0 0 -1
    outer loop
      vertex -1.92701 -3.50523 0
      vertex -1.92701 3.50523 0
      vertex -1.70312 3.61931 0
    endloop
  endfacet
  facet normal 0 0 -1
    outer loop
      vertex -2.14331 -3.37731 0
      vertex -1.92701 3.50523 0
      vertex -1.92701 -3.50523 0
    endloop
  endfacet
  facet normal 0 0 -1
    outer loop
      vertex -2.14331 -3.37731 0
      vertex -2.14331 3.37731 0
      vertex -1.92701 3.50523 0
    endloop
  endfacet
  facet normal 0 0 -1
    outer loop
      vertex -2.35114 -3.23607 0
      vertex -2.14331 3.37731 0
      vertex -2.14331 -3.37731 0
    endloop
  endfacet
  facet normal 0 0 -1
    outer loop
      vertex -2.35114 -3.23607 0
      vertex -2.35114 3.23607 0
      vertex -2.14331 3.37731 0
    endloop
  endfacet
  facet normal 0 0 -1
    outer loop
      vertex -2.5497 -3.08205 0
      vertex -2.35114 3.23607 0
      vertex -2.35114 -3.23607 0
    endloop
  endfacet
  facet normal 0 0 -1
    outer loop
      vertex -2.5497 -3.08205 0
      vertex -2.5497 3.08205 0
      vertex -2.35114 3.23607 0
    endloop
  endfacet
  facet normal 0 0 -1
    outer loop
      vertex -2.73819 -2.91587 0
      vertex -2.5497 3.08205 0
      vertex -2.5497 -3.08205 0
    endloop
  endfacet
  facet normal 0 0 -1
    outer loop
      vertex -2.73819 -2.91587 0
      vertex -2.73819 2.91587 0
      vertex -2.5497 3.08205 0
    endloop
  endfacet
  facet normal 0 0 -1
    outer loop
      vertex -2.91587 -2.73819 0
      vertex -2.73819 2.91587 0
      vertex -2.73819 -2.91587 0
    endloop
  endfacet
  facet normal 0 0 -1
    outer loop
      vertex -2.91587 -2.73819 0
      vertex -2.91587 2.73819 0
      vertex -2.73819 2.91587 0
    endloop
  endfacet
  facet normal 0 0 -1
    outer loop
      vertex -3.08205 -2.5497 0
      vertex -2.91587 2.73819 0
      vertex -2.91587 -2.73819 0
    endloop
  endfacet
  facet normal 0 0 -1
    outer loop
      vertex -3.08205 -2.5497 0
      vertex -3.08205 2.5497 0
      vertex -2.91587 2.73819 0
    endloop
  endfacet
  facet normal 0 0 -1
    outer loop
      vertex -3.23607 -2.35114 0
      vertex -3.08205 2.5497 0
      vertex -3.08205 -2.5497 0
    endloop
  endfacet
  facet normal 0 0 -1
    outer loop
      vertex -3.23607 -2.35114 0
      vertex -3.23607 2.35114 0
      vertex -3.08205 2.5497 0
    endloop
  endfacet
  facet normal 0 0 -1
    outer loop
      vertex -3.37731 -2.14331 0
      vertex -3.23607 2.35114 0
      vertex -3.23607 -2.35114 0
    endloop
  endfacet
  facet normal 0 0 -1
    outer loop
      vertex -3.37731 -2.14331 0
      vertex -3.37731 2.14331 0
      vertex -3.23607 2.35114 0
    endloop
  endfacet
  facet normal 0 0 -1
    outer loop
      vertex -3.50523 -1.92701 0
      vertex -3.37731 2.14331 0
      vertex -3.37731 -2.14331 0
    endloop
  endfacet
  facet normal 0 0 -1
    outer loop
      vertex -3.50523 -1.92701 0
      vertex -3.50523 1.92701 0
      vertex -3.37731 2.14331 0
    endloop
  endfacet
  facet normal 0 0 -1
    outer loop
      vertex -3.61931 -1.70312 0
      vertex -3.50523 1.92701 0
      vertex -3.50523 -1.92701 0
    endloop
  endfacet
  facet normal 0 0 -1
    outer loop
      vertex -3.61931 -1.70312 0
      vertex -3.61931 1.70312 0
      vertex -3.50523 1.92701 0
    endloop
  endfacet
  facet normal 0 0 -1
    outer loop
      vertex -3.71911 -1.4725 0
      vertex -3.61931 1.70312 0
      vertex -3.61931 -1.70312 0
    endloop
  endfacet
  facet normal 0 0 -1
    outer loop
      vertex -3.71911 -1.4725 0
      vertex -3.71911 1.4725 0
      vertex -3.61931 1.70312 0
    endloop
  endfacet
  facet normal 0 0 -1
    outer loop
      vertex -3.80423 -1.23607 0
      vertex -3.71911 1.4725 0
      vertex -3.71911 -1.4725 0
    endloop
  endfacet
  facet normal 0 0 -1
    outer loop
      vertex -3.80423 -1.23607 0
      vertex -3.80423 1.23607 0
      vertex -3.71911 1.4725 0
    endloop
  endfacet
  facet normal 0 0 -1
    outer loop
      vertex -3.87433 -0.99476 0
      vertex -3.80423 1.23607 0
      vertex -3.80423 -1.23607 0
    endloop
  endfacet
  facet normal 0 0 -1
    outer loop
      vertex -3.87433 -0.99476 0
      vertex -3.87433 0.99476 0
      vertex -3.80423 1.23607 0
    endloop
  endfacet
  facet normal 0 0 -1
    outer loop
      vertex -3.92915 -0.749525 0
      vertex -3.87433 0.99476 0
      vertex -3.87433 -0.99476 0
    endloop
  endfacet
  facet normal 0 0 -1
    outer loop
      vertex -3.92915 -0.749525 0
      vertex -3.92915 0.749525 0
      vertex -3.87433 0.99476 0
    endloop
  endfacet
  facet normal 0 0 -1
    outer loop
      vertex -3.96846 -0.501333 0
      vertex -3.92915 0.749525 0
      vertex -3.92915 -0.749525 0
    endloop
  endfacet
  facet normal 0 0 -1
    outer loop
      vertex -3.96846 -0.501333 0
      vertex -3.96846 0.501333 0
      vertex -3.92915 0.749525 0
    endloop
  endfacet
  facet normal 0 0 -1
    outer loop
      vertex -3.99211 -0.251162 0
      vertex -3.96846 0.501333 0
      vertex -3.96846 -0.501333 0
    endloop
  endfacet
  facet normal 0 0 -1
    outer loop
      vertex -3.99211 -0.251162 0
      vertex -3.99211 0.251162 0
      vertex -3.96846 0.501333 0
    endloop
  endfacet
  facet normal 0 -0 -1
    outer loop
      vertex -3.99211 0.251162 0
      vertex -3.99211 -0.251162 0
      vertex -4 -0 0
    endloop
  endfacet
  facet normal 0 0 1
    outer loop
      vertex 3.99211 0.251162 3
      vertex 3.99211 -0.251162 3
      vertex 4 0 3
    endloop
  endfacet
  facet normal 0 0 1
    outer loop
      vertex 3.96846 0.501333 3
      vertex 3.99211 -0.251162 3
      vertex 3.99211 0.251162 3
    endloop
  endfacet
  facet normal 0 0 1
    outer loop
      vertex 3.96846 0.501333 3
      vertex 3.96846 -0.501333 3
      vertex 3.99211 -0.251162 3
    endloop
  endfacet
  facet normal 0 0 1
    outer loop
      vertex 3.92915 0.749525 3
      vertex 3.96846 -0.501333 3
      vertex 3.96846 0.501333 3
    endloop
  endfacet
  facet normal 0 0 1
    outer loop
      vertex 3.92915 0.749525 3
      vertex 3.92915 -0.749525 3
      vertex 3.96846 -0.501333 3
    endloop
  endfacet
  facet normal 0 0 1
    outer loop
      vertex 3.87433 0.99476 3
      vertex 3.92915 -0.749525 3
      vertex 3.92915 0.749525 3
    endloop
  endfacet
  facet normal 0 0 1
    outer loop
      vertex 3.87433 0.99476 3
      vertex 3.87433 -0.99476 3
      vertex 3.92915 -0.749525 3
    endloop
  endfacet
  facet normal 0 0 1
    outer loop
      vertex 3.80423 1.23607 3
      vertex 3.87433 -0.99476 3
      vertex 3.87433 0.99476 3
    endloop
  endfacet
  facet normal 0 0 1
    outer loop
      vertex 3.80423 1.23607 3
      vertex 3.80423 -1.23607 3
      vertex 3.87433 -0.99476 3
    endloop
  endfacet
  facet normal 0 0 1
    outer loop
      vertex 3.71911 1.4725 3
      vertex 3.80423 -1.23607 3
      vertex 3.80423 1.23607 3
    endloop
  endfacet
  facet normal 0 0 1
    outer loop
      vertex 3.71911 1.4725 3
      vertex 3.71911 -1.4725 3
      vertex 3.80423 -1.23607 3
    endloop
  endfacet
  facet normal 0 0 1
    outer loop
      vertex 3.61931 1.70312 3
      vertex 3.71911 -1.4725 3
      vertex 3.71911 1.4725 3
    endloop
  endfacet
  facet normal 0 0 1
    outer loop
      vertex 3.61931 1.70312 3
      vertex 3.61931 -1.70312 3
      vertex 3.71911 -1.4725 3
    endloop
  endfacet
  facet normal 0 0 1
    outer loop
      vertex 3.50523 1.92701 3
      vertex 3.61931 -1.70312 3
      vertex 3.61931 1.70312 3
    endloop
  endfacet
  facet normal 0 0 1
    outer loop
      vertex 3.50523 1.92701 3
      vertex 3.50523 -1.92701 3
      vertex 3.61931 -1.70312 3
    endloop
  endfacet
  facet normal 0 0 1
    outer loop
      vertex 3.37731 2.14331 3
      vertex 3.50523 -1.92701 3
      vertex 3.50523 1.92701 3
    endloop
  endfacet
  facet normal 0 0 1
    outer loop
      vertex 3.37731 2.14331 3
      vertex 3.37731 -2.14331 3
      vertex 3.50523 -1.92701 3
    endloop
  endfacet
  facet normal 0 0 1
    outer loop
      vertex 3.23607 2.35114 3
      vertex 3.37731 -2.14331 3
      vertex 3.37731 2.14331 3
    endloop
  endfacet
  facet normal 0 0 1
    outer loop
      vertex 3.23607 2.35114 3
      vertex 3.23607 -2.35114 3
      vertex 3.37731 -2.14331 3
    endloop
  endfacet
  facet normal 0 0 1
    outer loop
      vertex 3.08205 2.5497 3
      vertex 3.23607 -2.35114 3
      vertex 3.23607 2.35114 3
    endloop
  endfacet
  facet normal 0 0 1
    outer loop
      vertex 3.08205 2.5497 3
      vertex 3.08205 -2.5497 3
      vertex 3.23607 -2.35114 3
    endloop
  endfacet
  facet normal 0 0 1
    outer loop
      vertex 2.91587 2.73819 3
      vertex 3.08205 -2.5497 3
      vertex 3.08205 2.5497 3
    endloop
  endfacet
  facet normal 0 0 1
    outer loop
      vertex 2.91587 2.73819 3
      vertex 2.91587 -2.73819 3
      vertex 3.08205 -2.5497 3
    endloop
  endfacet
  facet normal 0 0 1
    outer loop
      vertex 2.73819 2.91587 3
      vertex 2.91587 -2.73819 3
      vertex 2.91587 2.73819 3
    endloop
  endfacet
  facet normal 0 0 1
    outer loop
      vertex 2.73819 2.91587 3
      vertex 2.73819 -2.91587 3
      vertex 2.91587 -2.73819 3
    endloop
  endfacet
  facet normal 0 0 1
    outer loop
      vertex 2.5497 3.08205 3
      vertex 2.73819 -2.91587 3
      vertex 2.73819 2.91587 3
    endloop
  endfacet
  facet normal 0 0 1
    outer loop
      vertex 2.5497 3.08205 3
      vertex 2.5497 -3.08205 3
      vertex 2.73819 -2.91587 3
    endloop
  endfacet
  facet normal 0 0 1
    outer loop
      vertex 2.35114 3.23607 3
      vertex 2.5497 -3.08205 3
      vertex 2.5497 3.08205 3
    endloop
  endfacet
  facet normal 0 0 1
    outer loop
      vertex 2.35114 3.23607 3
      vertex 2.35114 -3.23607 3
      vertex 2.5497 -3.08205 3
    endloop
  endfacet
  facet normal 0 0 1
    outer loop
      vertex 2.14331 3.37731 3
      vertex 2.35114 -3.23607 3
      vertex 2.35114 3.23607 3
    endloop
  endfacet
  facet normal 0 0 1
    outer loop
      vertex 2.14331 3.37731 3
      vertex 2.14331 -3.37731 3
      vertex 2.35114 -3.23607 3
    endloop
  endfacet
  facet normal 0 0 1
    outer loop
      vertex 1.92701 3.50523 3
      vertex 2.14331 -3.37731 3
      vertex 2.14331 3.37731 3
    endloop
  endfacet
  facet normal 0 0 1
    outer loop
      vertex 1.92701 3.50523 3
      vertex 1.92701 -3.50523 3
      vertex 2.14331 -3.37731 3
    endloop
  endfacet
  facet normal 0 0 1
    outer loop
      vertex 1.70312 3.61931 3
      vertex 1.92701 -3.50523 3
      vertex 1.92701 3.50523 3
    endloop
  endfacet
  facet normal 0 0 1
    outer loop
      vertex 1.70312 3.61931 3
      vertex 1.70312 -3.61931 3
      vertex 1.92701 -3.50523 3
    endloop
  endfacet
  facet normal 0 0 1
    outer loop
      vertex 1.4725 3.71911 3
      vertex 1.70312 -3.61931 3
      vertex 1.70312 3.61931 3
    endloop
  endfacet
  facet normal 0 0 1
    outer loop
      vertex 1.4725 3.71911 3
      vertex 1.4725 -3.71911 3
      vertex 1.70312 -3.61931 3
    endloop
  endfacet
  facet normal 0 0 1
    outer loop
      vertex 1.23607 3.80423 3
      vertex 1.4725 -3.71911 3
      vertex 1.4725 3.71911 3
    endloop
  endfacet
  facet normal 0 0 1
    outer loop
      vertex 1.23607 3.80423 3
      vertex 1.23607 -3.80423 3
      vertex 1.4725 -3.71911 3
    endloop
  endfacet
  facet normal 0 0 1
    outer loop
      vertex 0.99476 3.87433 3
      vertex 1.23607 -3.80423 3
      vertex 1.23607 3.80423 3
    endloop
  endfacet
  facet normal 0 0 1
    outer loop
      vertex 0.99476 3.87433 3
      vertex 0.99476 -3.87433 3
      vertex 1.23607 -3.80423 3
    endloop
  endfacet
  facet normal 0 0 1
    outer loop
      vertex 0.749525 3.92915 3
      vertex 0.99476 -3.87433 3
      vertex 0.99476 3.87433 3
    endloop
  endfacet
  facet normal 0 0 1
    outer loop
      vertex 0.749525 3.92915 3
      vertex 0.749525 -3.92915 3
      vertex 0.99476 -3.87433 3
    endloop
  endfacet
  facet normal 0 0 1
    outer loop
      vertex 0.501333 3.96846 3
      vertex 0.749525 -3.92915 3
      vertex 0.749525 3.92915 3
    endloop
  endfacet
  facet normal 0 0 1
    outer loop
      vertex 0.501333 3.96846 3
      vertex 0.501333 -3.96846 3
      vertex 0.749525 -3.92915 3
    endloop
  endfacet
  facet normal 0 0 1
    outer loop
      vertex 0.251162 3.99211 3
      vertex 0.501333 -3.96846 3
      vertex 0.501333 3.96846 3
    endloop
  endfacet
  facet normal 0 0 1
    outer loop
      vertex 0.251162 3.99211 3
      vertex 0.251162 -3.99211 3
      vertex 0.501333 -3.96846 3
    endloop
  endfacet
  facet normal 0 0 1
    outer loop
      vertex 0 4 3
      vertex 0.251162 -3.99211 3
      vertex 0.251162 3.99211 3
    endloop
  endfacet
  facet normal 0 0 1
    outer loop
      vertex 0 4 3
      vertex -0 -4 3
      vertex 0.251162 -3.99211 3
    endloop
  endfacet
  facet normal -0 0 1
    outer loop
      vertex -0.251162 3.99211 3
      vertex -0 -4 3
      vertex 0 4 3
    endloop
  endfacet
  facet normal 0 0 1
    outer loop
      vertex -0.251162 3.99211 3
      vertex -0.251162 -3.99211 3
      vertex -0 -4 3
    endloop
  endfacet
  facet normal -0 0 1
    outer loop
      vertex -0.501333 3.96846 3
      vertex -0.251162 -3.99211 3
      vertex -0.251162 3.99211 3
    endloop
  endfacet
  facet normal 0 0 1
    outer loop
      vertex -0.501333 3.96846 3
      vertex -0.501333 -3.96846 3
      vertex -0.251162 -3.99211 3
    endloop
  endfacet
  facet normal -0 0 1
    outer loop
      vertex -0.749525 3.92915 3
      vertex -0.501333 -3.96846 3
      vertex -0.501333 3.96846 3
    endloop
  endfacet
  facet normal 0 0 1
    outer loop
      vertex -0.749525 3.92915 3
      vertex -0.749525 -3.92915 3
      vertex -0.501333 -3.96846 3
    endloop
  endfacet
  facet normal -0 0 1
    outer loop
      vertex -0.99476 3.87433 3
      vertex -0.749525 -3.92915 3
      vertex -0.749525 3.92915 3
    endloop
  endfacet
  facet normal 0 0 1
    outer loop
      vertex -0.99476 3.87433 3
      vertex -0.99476 -3.87433 3
      vertex -0.749525 -3.92915 3
    endloop
  endfacet
  facet normal -0 0 1
    outer loop
      vertex -1.23607 3.80423 3
      vertex -0.99476 -3.87433 3
      vertex -0.99476 3.87433 3
    endloop
  endfacet
  facet normal 0 0 1
    outer loop
      vertex -1.23607 3.80423 3
      vertex -1.23607 -3.80423 3
      vertex -0.99476 -3.87433 3
    endloop
  endfacet
  facet normal -0 0 1
    outer loop
      vertex -1.4725 3.71911 3
      vertex -1.23607 -3.80423 3
      vertex -1.23607 3.80423 3
    endloop
  endfacet
  facet normal 0 0 1
    outer loop
      vertex -1.4725 3.71911 3
      vertex -1.4725 -3.71911 3
      vertex -1.23607 -3.80423 3
    endloop
  endfacet
  facet normal -0 0 1
    outer loop
      vertex -1.70312 3.61931 3
      vertex -1.4725 -3.71911 3
      vertex -1.4725 3.71911 3
    endloop
  endfacet
  facet normal 0 0 1
    outer loop
      vertex -1.70312 3.61931 3
      vertex -1.70312 -3.61931 3
      vertex -1.4725 -3.71911 3
    endloop
  endfacet
  facet normal -0 0 1
    outer loop
      vertex -1.92701 3.50523 3
      vertex -1.70312 -3.61931 3
      vertex -1.70312 3.61931 3
    endloop
  endfacet
  facet normal 0 0 1
    outer loop
      vertex -1.92701 3.50523 3
      vertex -1.92701 -3.50523 3
      vertex -1.70312 -3.61931 3
    endloop
  endfacet
  facet normal -0 0 1
    outer loop
      vertex -2.14331 3.37731 3
      vertex -1.92701 -3.50523 3
      vertex -1.92701 3.50523 3
    endloop
  endfacet
  facet normal 0 0 1
    outer loop
      vertex -2.14331 3.37731 3
      vertex -2.14331 -3.37731 3
      vertex -1.92701 -3.50523 3
    endloop
  endfacet
  facet normal -0 0 1
    outer loop
      vertex -2.35114 3.23607 3
      vertex -2.14331 -3.37731 3
      vertex -2.14331 3.37731 3
    endloop
  endfacet
  facet normal 0 0 1
    outer loop
      vertex -2.35114 3.23607 3
      vertex -2.35114 -3.23607 3
      vertex -2.14331 -3.37731 3
    endloop
  endfacet
  facet normal -0 0 1
    outer loop
      vertex -2.5497 3.08205 3
      vertex -2.35114 -3.23607 3
      vertex -2.35114 3.23607 3
    endloop
  endfacet
  facet normal 0 0 1
    outer loop
      vertex -2.5497 3.08205 3
      vertex -2.5497 -3.08205 3
      vertex -2.35114 -3.23607 3
    endloop
  endfacet
  facet normal -0 0 1
    outer loop
      vertex -2.73819 2.91587 3
      vertex -2.5497 -3.08205 3
      vertex -2.5497 3.08205 3
    endloop
  endfacet
  facet normal 0 0 1
    outer loop
      vertex -2.73819 2.91587 3
      vertex -2.73819 -2.91587 3
      vertex -2.5497 -3.08205 3
    endloop
  endfacet
  facet normal -0 0 1
    outer loop
      vertex -2.91587 2.73819 3
      vertex -2.73819 -2.91587 3
      vertex -2.73819 2.91587 3
    endloop
  endfacet
  facet normal 0 0 1
    outer loop
      vertex -2.91587 2.73819 3
      vertex -2.91587 -2.73819 3
      vertex -2.73819 -2.91587 3
    endloop
  endfacet
  facet normal -0 0 1
    outer loop
      vertex -3.08205 2.5497 3
      vertex -2.91587 -2.73819 3
      vertex -2.91587 2.73819 3
    endloop
  endfacet
  facet normal 0 0 1
    outer loop
      vertex -3.08205 2.5497 3
      vertex -3.08205 -2.5497 3
      vertex -2.91587 -2.73819 3
    endloop
  endfacet
  facet normal -0 0 1
    outer loop
      vertex -3.23607 2.35114 3
      vertex -3.08205 -2.5497 3
      vertex -3.08205 2.5497 3
    endloop
  endfacet
  facet normal 0 0 1
    outer loop
      vertex -3.23607 2.35114 3
      vertex -3.23607 -2.35114 3
      vertex -3.08205 -2.5497 3
    endloop
  endfacet
  facet normal -0 0 1
    outer loop
      vertex -3.37731 2.14331 3
      vertex -3.23607 -2.35114 3
      vertex -3.23607 2.35114 3
    endloop
  endfacet
  facet normal 0 0 1
    outer loop
      vertex -3.37731 2.14331 3
      vertex -3.37731 -2.14331 3
      vertex -3.23607 -2.35114 3
    endloop
  endfacet
  facet normal -0 0 1
    outer loop
      vertex -3.50523 1.92701 3
      vertex -3.37731 -2.14331 3
      vertex -3.37731 2.14331 3
    endloop
  endfacet
  facet normal 0 0 1
    outer loop
      vertex -3.50523 1.92701 3
      vertex -3.50523 -1.92701 3
      vertex -3.37731 -2.14331 3
    endloop
  endfacet
  facet normal -0 0 1
    outer loop
      vertex -3.61931 1.70312 3
      vertex -3.50523 -1.92701 3
      vertex -3.50523 1.92701 3
    endloop
  endfacet
  facet normal 0 0 1
    outer loop
      vertex -3.61931 1.70312 3
      vertex -3.61931 -1.70312 3
      vertex -3.50523 -1.92701 3
    endloop
  endfacet
  facet normal -0 0 1
    outer loop
      vertex -3.71911 1.4725 3
      vertex -3.61931 -1.70312 3
      vertex -3.61931 1.70312 3
    endloop
  endfacet
  facet normal 0 0 1
    outer loop
      vertex -3.71911 1.4725 3
      vertex -3.71911 -1.4725 3
      vertex -3.61931 -1.70312 3
    endloop
  endfacet
  facet normal -0 0 1
    outer loop
      vertex -3.80423 1.23607 3
      vertex -3.71911 -1.4725 3
      vertex -3.71911 1.4725 3
    endloop
  endfacet
  facet normal 0 0 1
    outer loop
      vertex -3.80423 1.23607 3
      vertex -3.80423 -1.23607 3
      vertex -3.71911 -1.4725 3
    endloop
  endfacet
  facet normal -0 0 1
    outer loop
      vertex -3.87433 0.99476 3
      vertex -3.80423 -1.23607 3
      vertex -3.80423 1.23607 3
    endloop
  endfacet
  facet normal 0 0 1
    outer loop
      vertex -3.87433 0.99476 3
      vertex -3.87433 -0.99476 3
      vertex -3.80423 -1.23607 3
    endloop
  endfacet
  facet normal -0 0 1
    outer loop
      vertex -3.92915 0.749525 3
      vertex -3.87433 -0.99476 3
      vertex -3.87433 0.99476 3
    endloop
  endfacet
  facet normal 0 0 1
    outer loop
      vertex -3.92915 0.749525 3
      vertex -3.92915 -0.749525 3
      vertex -3.87433 -0.99476 3
    endloop
  endfacet
  facet normal -0 0 1
    outer loop
      vertex -3.96846 0.501333 3
      vertex -3.92915 -0.749525 3
      vertex -3.92915 0.749525 3
    endloop
  endfacet
  facet normal 0 0 1
    outer loop
      vertex -3.96846 0.501333 3
      vertex -3.96846 -0.501333 3
      vertex -3.92915 -0.749525 3
    endloop
  endfacet
  facet normal -0 0 1
    outer loop
      vertex -3.99211 0.251162 3
      vertex -3.96846 -0.501333 3
      vertex -3.96846 0.501333 3
    endloop
  endfacet
  facet normal 0 0 1
    outer loop
      vertex -3.99211 0.251162 3
      vertex -3.99211 -0.251162 3
      vertex -3.96846 -0.501333 3
    endloop
  endfacet
  facet normal 0 -0 1
    outer loop
      vertex -3.99211 -0.251162 3
      vertex -3.99211 0.251162 3
      vertex -4 -0 3
    endloop
  endfacet
endsolid OpenSCAD_Model
