solid OpenSCAD_Model
  facet normal 0 1 -0
    outer loop
      vertex 0 30 0
      vertex -105 30 0
      vertex 0 30 30
    endloop
  endfacet
  facet normal 0 -1 -0
    outer loop
      vertex 0 -30 30
      vertex -105 -30 0
      vertex 0 -30 0
    endloop
  endfacet
  facet normal -0 0 -1
    outer loop
      vertex 0 30 0
      vertex -105 -30 0
      vertex -105 30 0
    endloop
  endfacet
  facet normal 0 -0 -1
    outer loop
      vertex 0 30 0
      vertex 0 -30 0
      vertex -105 -30 0
    endloop
  endfacet
  facet normal 1 0 0
    outer loop
      vertex 0 30 30
      vertex 0 -30 0
      vertex 0 30 0
    endloop
  endfacet
  facet normal 1 0 0
    outer loop
      vertex 0 30 30
      vertex 0 -30 30
      vertex 0 -30 0
    endloop
  endfacet
  facet normal -0.274721 0 0.961524
    outer loop
      vertex -105 30 0
      vertex 0 -30 30
      vertex 0 30 30
    endloop
  endfacet
  facet normal -0.274721 0 0.961524
    outer loop
      vertex -105 30 0
      vertex -105 -30 0
      vertex 0 -30 30
    endloop
  endfacet
endsolid OpenSCAD_Model
